<svg width="30" height="30" viewBox="0 0 30 30" fill="none" xmlns="http://www.w3.org/2000/svg">
<path fill-rule="evenodd" clip-rule="evenodd" d="M20.6156 0L21.69 0.001875C21.9912 0.001875 22.2931 0.00625 22.5956 0.015C23.2519 0.03375 23.9175 0.07125 24.5662 0.189375C25.2262 0.3075 25.8412 0.500625 26.4394 0.80625C27.6258 1.40955 28.5907 2.37312 29.1956 3.55875C29.4994 4.15875 29.6925 4.77375 29.8106 5.43375C29.9288 6.08437 29.9681 6.74625 29.985 7.40437C29.9937 7.70562 29.9981 8.0075 29.9981 8.31L30 9.38438V20.6156L29.9981 21.69C29.9981 21.9912 29.9931 22.2931 29.9831 22.5956C29.9644 23.2519 29.9269 23.9156 29.8106 24.5644C29.7001 25.217 29.4915 25.8492 29.1919 26.4394C28.5879 27.6244 27.6244 28.5879 26.4394 29.1919C25.8492 29.4915 25.217 29.7001 24.5644 29.8106C23.9134 29.9175 23.2553 29.9752 22.5956 29.9831C22.2944 29.9919 21.9925 29.9969 21.69 29.9981L20.6156 30H9.38438L8.31 29.9981C8.00875 29.9981 7.70687 29.9931 7.40437 29.9831C6.74347 29.9754 6.08409 29.9177 5.43188 29.8106C4.78121 29.697 4.15074 29.4886 3.56063 29.1919C2.37418 28.5886 1.40929 27.625 0.804375 26.4394C0.508633 25.8479 0.301419 25.2161 0.189375 24.5644C0.081851 23.9134 0.0235607 23.2553 0.015 22.5956C0.0075 22.2944 0.0025 21.9925 0 21.69V9.38438L0.001875 8.31C0.001875 8.00875 0.00625 7.70687 0.015 7.40437C0.03375 6.74812 0.07125 6.08437 0.189375 5.43563C0.302013 4.78377 0.509859 4.15202 0.80625 3.56063C1.41117 2.375 2.37605 1.41143 3.5625 0.808125C4.15027 0.508559 4.77984 0.299333 5.43 0.1875C6.08346 0.080228 6.74409 0.0225634 7.40625 0.015C7.70625 0.0075 8.0075 0.0025 8.31 0H9.38438H20.6156ZM20.415 4.72125L11.4975 6.51937H11.4938C11.2909 6.55502 11.1001 6.64073 10.9388 6.76875C10.7722 6.9202 10.6657 7.12652 10.6388 7.35C10.6312 7.40063 10.62 7.5 10.62 7.65V18.81C10.62 19.0725 10.5975 19.3256 10.4213 19.5413C10.2431 19.7569 10.0275 19.8225 9.77063 19.8731L9.18937 19.9912C8.4525 20.1412 7.97062 20.2406 7.5375 20.4094C7.17075 20.5426 6.83831 20.7559 6.56437 21.0338C6.33165 21.2811 6.15545 21.576 6.04797 21.8981C5.94048 22.2202 5.90428 22.5619 5.94187 22.8994C6 23.4563 6.25312 23.9906 6.6825 24.3844C6.975 24.6506 7.33875 24.8531 7.76625 24.9394C8.20875 25.0275 8.685 24.9975 9.375 24.8588C9.7425 24.7838 10.0875 24.6675 10.4156 24.4744C10.7408 24.2832 11.0209 24.0242 11.2369 23.715C11.4502 23.404 11.5987 23.0533 11.6737 22.6838C11.7525 22.305 11.7712 21.96 11.7712 21.5813V11.9006C11.7712 11.3831 11.9212 11.2444 12.3375 11.1431C12.3825 11.1337 19.7513 9.64875 20.0963 9.58125C20.5781 9.48938 20.805 9.62812 20.805 10.1325V16.74C20.805 17.0025 20.8031 17.265 20.625 17.4825C20.4487 17.6981 20.2294 17.7638 19.9725 17.8162L19.3913 17.9325C18.6544 18.0825 18.1744 18.1819 17.7412 18.3506C17.3737 18.4841 17.0405 18.6981 16.7663 18.9769C16.5322 19.2234 16.354 19.5175 16.244 19.8391C16.134 20.1608 16.0947 20.5024 16.1287 20.8406C16.185 21.3975 16.455 21.9319 16.8862 22.3256C17.1895 22.605 17.5638 22.7957 17.9681 22.8769C18.4125 22.9669 18.8869 22.9331 19.5769 22.7944C19.9463 22.7194 20.2913 22.6106 20.6194 22.4156C20.9445 22.2244 21.2246 21.9654 21.4406 21.6562C21.6569 21.3412 21.8025 20.9981 21.8775 20.6269C21.9453 20.2629 21.973 19.8925 21.96 19.5225V5.37187C21.96 4.86 21.6919 4.54125 21.21 4.58437C21.135 4.59 20.4919 4.70437 20.415 4.72125Z" fill="#F0F0F0"/>
</svg>
