<svg width="30" height="30" viewBox="0 0 30 30" fill="none" xmlns="http://www.w3.org/2000/svg">
<path d="M30.0001 15.0918C30.0001 6.75555 23.2838 -0.00195312 15.0001 -0.00195312C6.71259 -7.81248e-05 -0.00366211 6.75555 -0.00366211 15.0937C-0.00366211 22.6255 5.48259 28.8693 12.6526 30.0018V19.4549H8.84634V15.0937H12.6563V11.7655C12.6563 7.98367 14.897 5.89492 18.3226 5.89492C19.9651 5.89492 21.6807 6.1893 21.6807 6.1893V9.9018H19.7888C17.927 9.9018 17.3457 11.0662 17.3457 12.2605V15.0918H21.5045L20.8407 19.453H17.3438V29.9999C24.5138 28.8674 30.0001 22.6237 30.0001 15.0918Z" fill="white"/>
</svg>
