<svg width="39" height="39" viewBox="0 0 39 39" fill="none" xmlns="http://www.w3.org/2000/svg">
<path d="M35.9667 39L22.3167 25.35C21.2333 26.2167 19.9875 26.9028 18.5792 27.4083C17.1708 27.9139 15.6722 28.1667 14.0833 28.1667C10.1472 28.1667 6.81597 26.8035 4.08958 24.0771C1.36319 21.3507 0 18.0194 0 14.0833C0 10.1472 1.36319 6.81597 4.08958 4.08958C6.81597 1.36319 10.1472 0 14.0833 0C18.0194 0 21.3507 1.36319 24.0771 4.08958C26.8035 6.81597 28.1667 10.1472 28.1667 14.0833C28.1667 15.6722 27.9139 17.1708 27.4083 18.5792C26.9028 19.9875 26.2167 21.2333 25.35 22.3167L39 35.9667L35.9667 39ZM14.0833 23.8333C16.7917 23.8333 19.0938 22.8854 20.9896 20.9896C22.8854 19.0938 23.8333 16.7917 23.8333 14.0833C23.8333 11.375 22.8854 9.07292 20.9896 7.17708C19.0938 5.28125 16.7917 4.33333 14.0833 4.33333C11.375 4.33333 9.07292 5.28125 7.17708 7.17708C5.28125 9.07292 4.33333 11.375 4.33333 14.0833C4.33333 16.7917 5.28125 19.0938 7.17708 20.9896C9.07292 22.8854 11.375 23.8333 14.0833 23.8333Z" fill="#787887"/>
</svg>
