<svg width="30" height="17" viewBox="0 0 30 17" fill="none" xmlns="http://www.w3.org/2000/svg">
<path d="M6.66667 3.33333V0H30V3.33333H6.66667ZM6.66667 10V6.66667H30V10H6.66667ZM6.66667 16.6667V13.3333H30V16.6667H6.66667ZM1.66667 3.33333C1.19444 3.33333 0.798611 3.17361 0.479167 2.85417C0.159722 2.53472 0 2.13889 0 1.66667C0 1.19444 0.159722 0.798611 0.479167 0.479167C0.798611 0.159722 1.19444 0 1.66667 0C2.13889 0 2.53472 0.159722 2.85417 0.479167C3.17361 0.798611 3.33333 1.19444 3.33333 1.66667C3.33333 2.13889 3.17361 2.53472 2.85417 2.85417C2.53472 3.17361 2.13889 3.33333 1.66667 3.33333ZM1.66667 10C1.19444 10 0.798611 9.84028 0.479167 9.52083C0.159722 9.20139 0 8.80556 0 8.33333C0 7.86111 0.159722 7.46528 0.479167 7.14583C0.798611 6.82639 1.19444 6.66667 1.66667 6.66667C2.13889 6.66667 2.53472 6.82639 2.85417 7.14583C3.17361 7.46528 3.33333 7.86111 3.33333 8.33333C3.33333 8.80556 3.17361 9.20139 2.85417 9.52083C2.53472 9.84028 2.13889 10 1.66667 10ZM1.66667 16.6667C1.19444 16.6667 0.798611 16.5069 0.479167 16.1875C0.159722 15.8681 0 15.4722 0 15C0 14.5278 0.159722 14.1319 0.479167 13.8125C0.798611 13.4931 1.19444 13.3333 1.66667 13.3333C2.13889 13.3333 2.53472 13.4931 2.85417 13.8125C3.17361 14.1319 3.33333 14.5278 3.33333 15C3.33333 15.4722 3.17361 15.8681 2.85417 16.1875C2.53472 16.5069 2.13889 16.6667 1.66667 16.6667Z" fill="#787887"/>
</svg>
