<svg width="30" height="30" viewBox="0 0 30 30" fill="none" xmlns="http://www.w3.org/2000/svg">
<path d="M15 0C11.0218 0 7.20644 1.58035 4.3934 4.3934C1.58035 7.20644 0 11.0218 0 15C0 18.9782 1.58035 22.7936 4.3934 25.6066C7.20644 28.4196 11.0218 30 15 30C18.9782 30 22.7936 28.4196 25.6066 25.6066C28.4196 22.7936 30 18.9782 30 15C30 11.0218 28.4196 7.20644 25.6066 4.3934C22.7936 1.58035 18.9782 0 15 0ZM21.8794 21.6338C21.7495 21.8449 21.5412 21.996 21.3001 22.054C21.0591 22.112 20.8049 22.0721 20.5931 21.9431C17.07 19.7925 12.6375 19.305 7.41562 20.4994C7.1737 20.5546 6.91975 20.5114 6.70965 20.3794C6.49955 20.2473 6.35051 20.0372 6.29531 19.7953C6.24011 19.5534 6.28328 19.2994 6.41532 19.0893C6.54736 18.8792 6.75745 18.7302 6.99937 18.675C12.7144 17.37 17.6156 17.9306 21.5681 20.3475C21.7796 20.4771 21.9311 20.6852 21.9894 20.9263C22.0478 21.1674 22.0082 21.4218 21.8794 21.6338ZM23.715 17.55C23.5526 17.8142 23.2919 18.0031 22.9902 18.0752C22.6885 18.1473 22.3706 18.0966 22.1063 17.9344C18.075 15.4575 11.9288 14.7394 7.15875 16.1869C6.86842 16.2559 6.5627 16.2115 6.30395 16.0628C6.04521 15.9141 5.85294 15.6723 5.76635 15.3868C5.67977 15.1012 5.7054 14.7933 5.83801 14.526C5.97063 14.2586 6.20023 14.052 6.48 13.9481C11.9269 12.2963 18.6994 13.0969 23.3288 15.9412C23.5933 16.1034 23.7826 16.364 23.855 16.6656C23.9274 16.9673 23.8771 17.2854 23.715 17.55ZM23.8725 13.2975C19.0387 10.425 11.0625 10.1606 6.44625 11.5612C6.0902 11.6692 5.70586 11.6312 5.37779 11.4557C5.04972 11.2803 4.80479 10.9817 4.69688 10.6256C4.58897 10.2696 4.62692 9.88523 4.80238 9.55716C4.97784 9.22909 5.27645 8.98416 5.6325 8.87625C10.9294 7.26938 19.7381 7.57875 25.305 10.8825C25.6252 11.0725 25.8569 11.3819 25.949 11.7426C26.0412 12.1034 25.9862 12.486 25.7963 12.8062C25.6063 13.1265 25.2969 13.3582 24.9361 13.4503C24.5753 13.5424 24.1927 13.4875 23.8725 13.2975Z" fill="#F0F0F0"/>
</svg>
