<svg width="37" height="30" viewBox="0 0 37 30" fill="none" xmlns="http://www.w3.org/2000/svg">
<path d="M11.5961 29.9954C25.527 29.9954 33.1478 18.4524 33.1478 8.45985C33.1509 8.13531 33.1462 7.81076 33.1339 7.48621C34.6171 6.41161 35.8975 5.08198 36.9155 3.55933C35.5291 4.16906 34.0606 4.57174 32.5571 4.75446C34.1413 3.80783 35.3276 2.31807 35.8957 0.562253C34.4082 1.44527 32.7791 2.06428 31.0805 2.39188C29.9389 1.17603 28.4281 0.370564 26.7824 0.10025C25.1366 -0.170064 23.4476 0.109857 21.977 0.896654C20.5064 1.68345 19.3363 2.93321 18.648 4.45236C17.9596 5.9715 17.7914 7.67525 18.1693 9.29968C15.1577 9.14939 12.2113 8.36736 9.52149 7.00438C6.83169 5.6414 4.45863 3.72794 2.5564 1.38824C1.59101 3.05668 1.29654 5.02991 1.73274 6.90752C2.16893 8.78512 3.30312 10.4265 4.90514 11.4985C3.70403 11.4596 2.52916 11.1371 1.47662 10.5571V10.6609C1.47956 12.4084 2.08531 14.1013 3.19163 15.4539C4.29795 16.8066 5.83707 17.7361 7.54921 18.0856C6.8992 18.2647 6.22771 18.354 5.55347 18.3509C5.078 18.3558 4.60328 18.3118 4.13684 18.2194C4.61995 19.7244 5.56218 21.0403 6.83129 21.9825C8.1004 22.9247 9.63267 23.4459 11.2131 23.4729C8.52771 25.5793 5.21257 26.7226 1.79963 26.7192C1.19813 26.7237 0.596983 26.689 0 26.6153C3.46411 28.8244 7.48753 29.9972 11.5961 29.9954Z" fill="white"/>
</svg>
