<svg width="30" height="22" viewBox="0 0 30 22" fill="none" xmlns="http://www.w3.org/2000/svg">
<path d="M15.0956 0H15.2625C16.8038 0.005625 24.6131 0.0618753 26.7188 0.628125C27.3553 0.800941 27.9353 1.13779 28.4009 1.60502C28.8665 2.07224 29.2013 2.65347 29.3719 3.29063C29.5613 4.00313 29.6944 4.94625 29.7844 5.91937L29.8031 6.11438L29.8444 6.60187L29.8594 6.79688C29.9813 8.51062 29.9963 10.1156 29.9981 10.4662V10.6069C29.9963 10.9706 29.9794 12.6844 29.8444 14.4694L29.8294 14.6663L29.8125 14.8612C29.7188 15.9338 29.58 16.9988 29.3719 17.7825C29.2013 18.4197 28.8665 19.0009 28.4009 19.4681C27.9353 19.9353 27.3553 20.2722 26.7188 20.445C24.5438 21.03 16.2769 21.0713 15.1312 21.0731H14.865C14.2856 21.0731 11.8894 21.0619 9.37687 20.9756L9.05812 20.9644L8.895 20.9569L8.57438 20.9438L8.25375 20.9306C6.1725 20.8388 4.19063 20.6906 3.2775 20.4431C2.64118 20.2705 2.06128 19.9339 1.59572 19.467C1.13016 19.0002 0.795231 18.4193 0.624375 17.7825C0.41625 17.0006 0.2775 15.9338 0.18375 14.8612L0.16875 14.6644L0.15375 14.4694C0.0606814 13.1989 0.00940372 11.9257 0 10.6519L0 10.4213C0.00375 10.0181 0.01875 8.625 0.12 7.0875L0.133125 6.89437L0.13875 6.79688L0.15375 6.60187L0.195 6.11438L0.21375 5.91937C0.30375 4.94625 0.436875 4.00125 0.62625 3.29063C0.79682 2.65347 1.13162 2.07224 1.5972 1.60502C2.06278 1.13779 2.64283 0.800941 3.27937 0.628125C4.1925 0.384375 6.17437 0.234375 8.25562 0.140625L8.57438 0.1275L8.89687 0.11625L9.05812 0.110625L9.37875 0.0975003C11.1632 0.0401318 12.9484 0.0082533 14.7337 0.00187509L15.0956 0ZM12 6.01875V15.0525L19.7944 10.5375L12 6.01875Z" fill="#F0F0F0"/>
</svg>
