<svg width="193" height="70" viewBox="0 0 193 70" fill="none" xmlns="http://www.w3.org/2000/svg">
<path d="M0 50.3736C0 62.0174 19.4034 62.8892 19.4034 50.3736C19.4034 46.6999 19.0254 20.0499 19.0884 20.0499C27.2782 22.7273 35.027 22.1046 40.0038 31.4446C40.4448 31.5276 41.3268 31.6439 41.3268 31.4446C39.4998 12.5156 19.4034 12.9515 19.4034 7.28523L19.4034 6.10352e-05L12.9146 6.10352e-05L12.9146 41.2204C12.9146 39.3525 0 38.7298 0 50.3736Z" fill="#2BCDEE"/>
<path d="M61.7581 9.06273C61.7581 -2.5811 42.3546 -3.45283 42.3546 9.06273C42.3546 12.7364 42.7326 39.3865 42.6696 39.3865C34.4799 36.709 26.7311 37.3317 21.7542 27.9917C21.3133 27.9087 20.4313 27.7925 20.4313 27.9917C22.2582 46.9207 42.3546 46.4849 42.3546 52.1511L42.3546 59.4363L48.8434 59.4363L48.8434 18.2159C48.8434 20.0839 61.7581 20.7066 61.7581 9.06273Z" fill="#2BCDEE"/>
<path d="M180.377 59.8524C177.484 59.8524 174.948 59.1986 172.769 57.891C170.629 56.5834 168.965 54.7211 167.776 52.304C166.587 49.8869 165.993 47.034 165.993 43.7452C165.993 40.9318 166.568 38.3959 167.717 36.1373C168.866 33.8787 170.49 32.0957 172.59 30.7881C174.73 29.4805 177.226 28.8267 180.079 28.8267C182.576 28.8267 184.755 29.3814 186.617 30.4909C188.48 31.6004 189.926 33.1655 190.956 35.1863C192.026 37.1676 192.561 39.545 192.561 42.3187C192.561 43.1508 192.462 43.7055 192.264 43.9829C192.105 44.2603 191.769 44.399 191.253 44.399H171.223C171.223 44.5178 171.223 44.6565 171.223 44.815C171.223 44.9339 171.223 45.0528 171.223 45.1716C171.422 48.5001 172.353 51.0954 174.017 52.9578C175.681 54.7805 177.94 55.6919 180.793 55.6919C182.021 55.6919 183.23 55.4541 184.418 54.9786C185.647 54.4635 186.716 53.9682 187.628 53.4927C188.579 53.0172 189.252 52.7795 189.649 52.7795C190.085 52.7795 190.421 52.938 190.659 53.255L192.145 55.2164C191.353 56.2466 190.283 57.1183 188.935 57.8316C187.628 58.5052 186.221 59.0203 184.715 59.3769C183.21 59.6939 181.763 59.8524 180.377 59.8524ZM171.402 41.0705H187.806C187.806 38.6138 187.133 36.6128 185.785 35.0675C184.438 33.5221 182.576 32.7495 180.198 32.7495C177.623 32.7495 175.602 33.4825 174.136 34.9486C172.67 36.4147 171.758 38.4553 171.402 41.0705Z" fill="#2BCDEE"/>
<path d="M153.315 59.4363V15.6318H158.605V59.4363H153.315ZM149.036 59.4363V56.9994C149.036 56.6428 149.115 56.3654 149.274 56.1673C149.432 55.9296 149.67 55.7909 149.987 55.7513L154.445 54.8003L155.099 59.4363H149.036ZM156.822 59.4363L157.476 54.8003L161.934 55.7513C162.251 55.7909 162.488 55.9296 162.647 56.1673C162.805 56.3654 162.885 56.6428 162.885 56.9994V59.4363H156.822ZM155.099 15.6318L154.445 20.2678L149.987 19.3168C149.67 19.2376 149.432 19.0989 149.274 18.9008C149.115 18.7026 149.036 18.4253 149.036 18.0687V15.6318H155.099Z" fill="#2BCDEE"/>
<path d="M118.78 69.6594V29.3022H121.93C122.722 29.3022 123.198 29.6786 123.356 30.4315L123.832 33.9977C125.1 32.4127 126.566 31.1447 128.23 30.1937C129.894 29.2428 131.796 28.7673 133.936 28.7673C136.393 28.7673 138.473 29.4013 140.177 30.6692C141.881 31.9372 143.168 33.7203 144.04 36.0185C144.912 38.3167 145.348 41.031 145.348 44.1613C145.348 47.0538 144.833 49.6888 143.802 52.0663C142.772 54.4437 141.286 56.3457 139.345 57.7722C137.403 59.159 135.065 59.8524 132.331 59.8524C130.469 59.8524 128.884 59.5553 127.576 58.9609C126.269 58.3269 125.1 57.4354 124.069 56.2863V69.6594H118.78ZM131.142 55.7513C133.044 55.7513 134.629 55.3155 135.897 54.4437C137.205 53.5324 138.196 52.205 138.869 50.4615C139.543 48.718 139.88 46.618 139.88 44.1613C139.88 40.5158 139.246 37.762 137.978 35.8996C136.71 33.9977 134.788 33.0467 132.212 33.0467C130.469 33.0467 128.943 33.4429 127.636 34.2354C126.368 35.0279 125.179 36.1572 124.069 37.6233V52.1852C125.06 53.4928 126.13 54.4239 127.279 54.9787C128.428 55.4938 129.716 55.7513 131.142 55.7513ZM120.563 29.3022L119.909 33.9382L115.451 32.9872C115.134 32.908 114.896 32.7693 114.738 32.5712C114.579 32.3731 114.5 32.0957 114.5 31.7391V29.3022H120.563ZM114.5 69.6594V67.2225C114.5 66.8659 114.579 66.5687 114.738 66.331C114.896 66.1329 115.134 66.014 115.451 65.9744L119.909 65.0234L120.563 69.6594H114.5ZM122.286 69.6594L122.94 65.0234L127.398 65.9744C127.715 66.014 127.953 66.1329 128.111 66.331C128.27 66.5687 128.349 66.8659 128.349 67.2225V69.6594H122.286Z" fill="#2BCDEE"/>
<path d="M102.47 59.4363V29.3021H107.759V59.4363H102.47ZM98.1902 59.4363V56.9994C98.1902 56.6428 98.2694 56.3655 98.4279 56.1673C98.5864 55.9296 98.8242 55.7909 99.1412 55.7513L103.599 54.8003L104.253 59.4363H98.1902ZM105.976 59.4363L106.63 54.8003L111.088 55.7513C111.405 55.7909 111.643 55.9296 111.801 56.1673C111.96 56.3655 112.039 56.6428 112.039 56.9994V59.4363H105.976ZM104.253 29.3021L103.599 33.9382L99.1412 32.9872C98.8242 32.9079 98.5864 32.7693 98.4279 32.5711C98.2694 32.373 98.1902 32.0956 98.1902 31.739V29.3021H104.253ZM105.025 23.5963C104.035 23.5963 103.163 23.2198 102.41 22.467C101.657 21.7141 101.281 20.8424 101.281 19.8518C101.281 18.8215 101.657 17.93 102.41 17.1771C103.163 16.4243 104.035 16.0479 105.025 16.0479C106.056 16.0479 106.947 16.4243 107.7 17.1771C108.453 17.93 108.829 18.8215 108.829 19.8518C108.829 20.8424 108.453 21.7141 107.7 22.467C106.947 23.2198 106.056 23.5963 105.025 23.5963Z" fill="#2BCDEE"/>
<path d="M76.4982 59.9118C74.3189 59.9118 72.4763 59.4363 70.9706 58.4853C69.4649 57.4947 68.3158 56.1475 67.5233 54.4437C66.7705 52.7398 66.394 50.7586 66.394 48.5V29.3021H71.6839V48.5C71.6839 50.7982 72.199 52.5813 73.2292 53.8493C74.2991 55.0777 75.9038 55.6918 78.0435 55.6918C79.5889 55.6918 81.0352 55.3352 82.3824 54.622C83.7692 53.8691 85.0372 52.8389 86.1863 51.5313V29.3021H91.4761V59.4363H88.326C87.5335 59.4363 87.058 59.0599 86.8995 58.307L86.4835 55.0975C85.1759 56.5239 83.7098 57.6929 82.0852 58.6042C80.4606 59.4759 78.5983 59.9118 76.4982 59.9118ZM89.6931 59.4363L90.3469 54.8003L94.8046 55.7513C95.1216 55.7909 95.3593 55.9296 95.5178 56.1673C95.6763 56.3654 95.7556 56.6428 95.7556 56.9994V59.4363H89.6931ZM68.1771 29.3021L67.5233 33.9382L63.0656 32.9872C62.7486 32.9079 62.5109 32.7692 62.3524 32.5711C62.1939 32.373 62.1146 32.0956 62.1146 31.739V29.3021H68.1771ZM87.9694 29.3021L87.3156 33.9382L82.8579 32.9872C82.5409 32.9079 82.3031 32.7692 82.1446 32.5711C81.9862 32.373 81.9069 32.0956 81.9069 31.739V29.3021H87.9694Z" fill="#2BCDEE"/>
</svg>
