<svg width="350" height="70" viewBox="0 0 350 70" fill="none" xmlns="http://www.w3.org/2000/svg">
<path d="M10 70H0V60H10V70ZM70 70H20V60H60V30H30V40H50V50H20V20H70V70ZM70 10H10V50H0V0H70V10Z" fill="url(#paint0_linear_15_67)"/>
<path d="M101.72 21.34C98.36 21.34 95.62 22.94 93.5 26.14C91.38 29.3 90.32 33.2 90.32 37.84C90.32 43.24 91.34 47.22 93.38 49.78C95.46 52.3 97.96 53.56 100.88 53.56C102.56 53.56 104.08 53.38 105.44 53.02V40.12C105.08 39.32 103.82 38.92 101.66 38.92V37.66H116.84V38.92C114.68 38.92 113.42 39.32 113.06 40.12V50.2C112.38 51.44 110.96 52.66 108.8 53.86C106.64 55.02 103.96 55.6 100.76 55.6C95.36 55.6 90.88 53.84 87.32 50.32C83.76 46.8 81.98 42.68 81.98 37.96C81.98 34.24 82.98 30.94 84.98 28.06C86.98 25.14 89.46 22.96 92.42 21.52C95.38 20.04 98.46 19.3 101.66 19.3C102.82 19.3 104.32 19.6 106.16 20.2C108 20.8 109.02 21.1 109.22 21.1C109.7 21.1 109.94 20.7 109.94 19.9H111.32L111.92 28.6H110.6C110.36 26.96 109.24 25.34 107.24 23.74C105.24 22.14 103.4 21.34 101.72 21.34ZM125.183 33.04C126.103 33.04 126.563 33.86 126.563 35.5C126.563 36.18 126.223 36.7 125.543 37.06C124.863 37.42 124.143 37.6 123.383 37.6C122.583 37.6 121.863 37.32 121.223 36.76C120.623 36.2 120.323 35.48 120.323 34.6C120.323 32.56 121.323 30.96 123.323 29.8C125.363 28.6 128.003 28 131.243 28C135.043 28 138.003 28.96 140.123 30.88C142.243 32.76 143.303 35.16 143.303 38.08V49.96C143.303 51.24 143.503 52.18 143.903 52.78C144.343 53.38 144.863 53.68 145.463 53.68C145.983 53.68 146.443 53.54 146.843 53.26C147.283 52.98 147.503 52.64 147.503 52.24H148.583C148.583 54.4 146.383 55.48 141.983 55.48C139.943 55.48 138.363 54.76 137.243 53.32C134.843 54.84 132.063 55.6 128.903 55.6C122.223 55.6 118.883 53.16 118.883 48.28C118.883 47.28 119.223 46.38 119.903 45.58C120.623 44.78 121.703 44.1 123.143 43.54C124.583 42.98 125.863 42.54 126.983 42.22C128.143 41.9 129.723 41.54 131.723 41.14C133.723 40.7 135.083 40.38 135.803 40.18C135.803 36.42 135.483 33.82 134.843 32.38C134.243 30.9 132.843 30.16 130.643 30.16C129.323 30.16 128.123 30.44 127.043 31C126.003 31.52 125.383 32.2 125.183 33.04ZM136.403 51.88C136.003 50.8 135.803 49.6 135.803 48.28V41.5C132.403 42.54 130.163 43.4 129.083 44.08C127.403 45.2 126.563 46.64 126.563 48.4C126.563 50.24 126.943 51.56 127.703 52.36C128.503 53.16 129.403 53.56 130.403 53.56C132.163 53.56 134.163 53 136.403 51.88ZM148.999 55V53.74C151.159 53.74 152.419 53.34 152.779 52.54V32.2C150.619 32.04 149.359 31.96 148.999 31.96V30.58C149.759 30.58 151.599 30.16 154.519 29.32C157.439 28.44 159.359 28 160.279 28V30.1C161.919 28.7 163.979 28 166.459 28C171.779 28 175.279 29.12 176.959 31.36C178.759 29.12 181.219 28 184.339 28C188.179 28 191.079 29.02 193.039 31.06C195.039 33.1 196.039 36.64 196.039 41.68V52.54C196.399 53.34 197.659 53.74 199.819 53.74V55H184.759V53.74C186.919 53.74 188.179 53.34 188.539 52.54V40.9C188.539 37.18 188.199 34.44 187.519 32.68C186.879 30.92 185.699 30.04 183.979 30.04C181.819 30.04 179.779 31.04 177.859 33.04C178.059 33.6 178.159 34.36 178.159 35.32V52.54C178.519 53.34 179.779 53.74 181.939 53.74V55H166.879V53.74C169.039 53.74 170.299 53.34 170.659 52.54V38.8C170.659 35.52 170.299 33.24 169.579 31.96C168.859 30.68 167.699 30.04 166.099 30.04C164.419 30.04 162.479 31 160.279 32.92V52.54C160.639 53.34 161.899 53.74 164.059 53.74V55H148.999ZM209.543 40.54C209.623 44.02 210.403 47.02 211.883 49.54C213.403 52.06 215.323 53.32 217.643 53.32C221.123 53.32 223.923 52 226.043 49.36L227.483 50.08C226.323 52 224.803 53.4 222.923 54.28C221.083 55.16 218.643 55.6 215.603 55.6C214.043 55.6 212.523 55.38 211.043 54.94C209.563 54.46 208.083 53.7 206.603 52.66C205.163 51.58 203.983 50 203.063 47.92C202.183 45.84 201.743 43.36 201.743 40.48C201.743 37 202.963 34.06 205.403 31.66C207.883 29.22 211.083 28 215.003 28C219.283 28 222.603 29.22 224.963 31.66C227.323 34.06 228.503 37.02 228.503 40.54H209.543ZM209.603 38.68H220.523C220.283 35.84 219.783 33.66 219.023 32.14C218.303 30.58 217.123 29.8 215.483 29.8C214.043 29.8 212.743 30.54 211.583 32.02C210.463 33.46 209.803 35.68 209.603 38.68ZM251.661 21.34C248.301 21.34 245.561 22.94 243.441 26.14C241.321 29.3 240.261 33.2 240.261 37.84C240.261 43.24 241.281 47.22 243.321 49.78C245.401 52.3 247.901 53.56 250.821 53.56C252.501 53.56 254.021 53.38 255.381 53.02V40.12C255.021 39.32 253.761 38.92 251.601 38.92V37.66H266.781V38.92C264.621 38.92 263.361 39.32 263.001 40.12V50.2C262.321 51.44 260.901 52.66 258.741 53.86C256.581 55.02 253.901 55.6 250.701 55.6C245.301 55.6 240.821 53.84 237.261 50.32C233.701 46.8 231.921 42.68 231.921 37.96C231.921 34.24 232.921 30.94 234.921 28.06C236.921 25.14 239.401 22.96 242.361 21.52C245.321 20.04 248.401 19.3 251.601 19.3C252.761 19.3 254.261 19.6 256.101 20.2C257.941 20.8 258.961 21.1 259.161 21.1C259.641 21.1 259.881 20.7 259.881 19.9H261.261L261.861 28.6H260.541C260.301 26.96 259.181 25.34 257.181 23.74C255.181 22.14 253.341 21.34 251.661 21.34ZM276.984 40.54C277.064 44.02 277.844 47.02 279.324 49.54C280.844 52.06 282.764 53.32 285.084 53.32C288.564 53.32 291.364 52 293.484 49.36L294.924 50.08C293.764 52 292.244 53.4 290.364 54.28C288.524 55.16 286.084 55.6 283.044 55.6C281.484 55.6 279.964 55.38 278.484 54.94C277.004 54.46 275.524 53.7 274.044 52.66C272.604 51.58 271.424 50 270.504 47.92C269.624 45.84 269.184 43.36 269.184 40.48C269.184 37 270.404 34.06 272.844 31.66C275.324 29.22 278.524 28 282.444 28C286.724 28 290.044 29.22 292.404 31.66C294.764 34.06 295.944 37.02 295.944 40.54H276.984ZM277.044 38.68H287.964C287.724 35.84 287.224 33.66 286.464 32.14C285.744 30.58 284.564 29.8 282.924 29.8C281.484 29.8 280.184 30.54 279.024 32.02C277.904 33.46 277.244 35.68 277.044 38.68ZM298.823 55V53.74C300.983 53.74 302.243 53.34 302.603 52.54V32.2C300.443 32.04 299.183 31.96 298.823 31.96V30.58C299.583 30.58 301.423 30.16 304.343 29.32C307.263 28.44 309.183 28 310.103 28V30.1C311.743 28.7 313.803 28 316.283 28C321.603 28 325.103 29.12 326.783 31.36C328.583 29.12 331.043 28 334.163 28C338.003 28 340.903 29.02 342.863 31.06C344.863 33.1 345.863 36.64 345.863 41.68V52.54C346.223 53.34 347.483 53.74 349.643 53.74V55H334.583V53.74C336.743 53.74 338.003 53.34 338.363 52.54V40.9C338.363 37.18 338.023 34.44 337.343 32.68C336.703 30.92 335.523 30.04 333.803 30.04C331.643 30.04 329.603 31.04 327.683 33.04C327.883 33.6 327.983 34.36 327.983 35.32V52.54C328.343 53.34 329.603 53.74 331.763 53.74V55H316.703V53.74C318.863 53.74 320.123 53.34 320.483 52.54V38.8C320.483 35.52 320.123 33.24 319.403 31.96C318.683 30.68 317.523 30.04 315.923 30.04C314.243 30.04 312.303 31 310.103 32.92V52.54C310.463 53.34 311.723 53.74 313.883 53.74V55H298.823Z" fill="#C2250A"/>
<defs>
<linearGradient id="paint0_linear_15_67" x1="14.5" y1="-6.5" x2="65" y2="84.5" gradientUnits="userSpaceOnUse">
<stop stop-color="#FF3C1A"/>
<stop offset="1" stop-color="#8A210F"/>
</linearGradient>
</defs>
</svg>
