<?xml version="1.0" encoding="utf-8"?>
<!-- Generator: Adobe Illustrator 27.2.0, SVG Export Plug-In . SVG Version: 6.00 Build 0)  -->
<svg version="1.1" id="Layer_1" xmlns="http://www.w3.org/2000/svg" xmlns:xlink="http://www.w3.org/1999/xlink" x="0px" y="0px"
	 viewBox="0 0 96 96" style="enable-background:new 0 0 96 96;" xml:space="preserve">
<style type="text/css">
	.st0{fill:#DBF0EE;}
	.st1{fill:#FAD4CA;}
	.st2{fill:#F8F7F7;}
	.st3{fill:#EDEDED;}
	.st4{clip-path:url(#SVGID_00000123415202650966850190000013168109726457355956_);}
	.st5{fill:#CCE2EE;}
	.st6{fill:#EC6450;}
	.st7{fill:#FFFFFF;}
	.st8{fill:none;stroke:#EDEDED;stroke-width:0.32;stroke-miterlimit:10;}
	.st9{fill:none;stroke:#E0C3B9;stroke-width:0.43;stroke-miterlimit:10;}
	.st10{fill:#F9C674;}
	.st11{fill:#43B0D5;}
	.st12{fill:#99C5DD;}
	.st13{fill:#A9756D;}
	.st14{fill:#F2978A;}
	.st15{fill:#DEF3F9;}
	.st16{fill:#82D8EC;}
	.st17{fill:#FDD399;}
	.st18{fill:#C5E5F8;}
	.st19{fill:#CFCFCF;}
	.st20{clip-path:url(#SVGID_00000114788871250722571970000014889025767098540677_);}
	.st21{fill:#006EAA;}
	.st22{fill:#7E3025;}
	.st23{fill:#2684B7;}
	.st24{fill:#AB6044;}
	.st25{fill:#A14C2C;}
	.st26{fill:none;stroke:#C08872;stroke-width:0.39;stroke-miterlimit:10;}
	.st27{fill:none;stroke:#8C473D;stroke-width:0.87;stroke-linecap:round;stroke-linejoin:round;}
	.st28{fill:#E7E7E7;}
	.st29{fill:#8C473D;}
	.st30{fill:#878787;}
	.st31{fill:none;stroke:#A9756D;stroke-width:0.5;stroke-miterlimit:10;}
	.st32{fill:#F29140;}
	.st33{fill:#E2E2E2;}
	.st34{fill:#DCEFFB;}
	.st35{fill:#B8E1DD;}
	.st36{fill:#13253B;}
	.st37{fill:none;stroke:#13253B;stroke-width:0.57;stroke-miterlimit:10;}
	.st38{fill:none;stroke:#CFCFCF;stroke-width:0.88;stroke-linecap:round;stroke-linejoin:round;}
	.st39{fill:none;stroke:#F9C674;stroke-width:1.79;stroke-miterlimit:10;}
	.st40{fill:none;stroke:#F29140;stroke-width:0.9;stroke-miterlimit:10;}
	.st41{fill:none;stroke:#99C5DD;stroke-width:0.9;stroke-linecap:round;stroke-linejoin:round;}
	.st42{fill:#96371F;}
	.st43{fill:#5B5755;}
	.st44{fill:#141414;}
	.st45{fill:#B2B2B2;}
	.st46{fill:#C28B7D;}
	.st47{fill:#B16B5A;}
	.st48{fill:#F2F1E6;}
	.st49{fill:#E1F3F8;}
	.st50{fill:#87CFC8;}
	.st51{fill:#B3D6D2;}
	.st52{fill-rule:evenodd;clip-rule:evenodd;fill:#6E958D;}
	.st53{fill:#02786B;}
	.st54{fill:#03243B;}
	.st55{fill:#4BB2A9;}
	.st56{fill:#858485;}
	.st57{fill:#909295;}
	.st58{fill:none;stroke:#FFFFFF;stroke-width:0.6749;stroke-miterlimit:10;}
	.st59{fill:#175160;}
	.st60{fill:#CFCECD;}
	.st61{fill:#F39822;}
	.st62{fill:#1795CA;}
	.st63{fill:#4AA9D2;}
	.st64{fill:#F26767;}
	.st65{fill:#F48586;}
	.st66{fill:#F0EFEF;}
	.st67{fill:#E7EDF1;}
	.st68{fill:#D93A3A;}
	.st69{fill:#EB605F;}
	.st70{fill:#D2E9F3;}
	.st71{fill:#863E33;}
	.st72{fill:#8C473D;stroke:#E0C3B9;stroke-width:0.87;stroke-miterlimit:10;}
	.st73{fill:#C08872;}
</style>
<g>
	<g>
		<path class="st49" d="M82.3,47.2c0-12.4-0.8-18.3-2.3-25.1s-4.7-11.7-9.6-14.9S58.2,2.5,48.1,2.5S30.6,4.1,25.8,7.3
			s-8.1,8.2-9.7,15c-1.6,6.8-2.4,12.6-2.4,26.5s0.8,18.3,2.3,25.1s4.7,11.7,9.6,14.9s12.3,4.8,22.3,4.8s17.5-1.6,22.3-4.8
			s8.1-8.2,9.7-15S82.3,59.6,82.3,47.2z"/>
		<path class="st50" d="M13.7,49.3c0,13.4,0.8,17.9,2.3,24.5c1.5,6.7,4.7,11.7,9.6,14.9c4.8,3.2,12.3,4.8,22.3,4.8
			c10,0,17.5-1.6,22.3-4.8c4.9-3.2,8.1-8.2,9.7-15c1.5-6.4,2.4-13.3,2.4-24.4H13.7z"/>
	</g>
	<path class="st7" d="M33.2,25.7h-5.9c0-2.6,0.9-3.7,4.5-3.7l0,0c0-2.2,0.8-3.1,3.8-3.1c3.9,0,4.9,1.1,4.9,4H43
		c2.8,0,3.4,0.8,3.4,2.8H30.7"/>
	<path class="st7" d="M55.3,16h-3.6c0-1.6,0.6-2.3,2.8-2.3l0,0c0-1.4,0.5-1.9,2.4-1.9c2.4,0,3,0.7,3,2.5h1.5c1.7,0,2.1,0.5,2.1,1.7
		h-9.7"/>
	<g>
		<g>
			<path class="st7" d="M71,49.2l-4.4-6.6h-3.6l-2.8-3.6l-5.7,2.7l-2.7,0l-5.3-6.8h-4.2c-0.2,0-0.3,0.1-0.4,0.3l-0.3,1.2h-5
				c-0.2,0-0.5,0.1-0.6,0.3l-3.2,4h-4.7c-0.3,0-0.6,0.1-0.8,0.4l-4.2,5.2h-4.6c-0.3,0-0.6,0.1-0.8,0.4l-2.1,2.7L71,49.2z"/>
			<path class="st51" d="M71,49.2l-4.4-6.6l-1.7,2.3L60.1,39l-5.2,6.7l-8.5-10.9l2,9.1l-4.5-5.8l0,7.2l-5,2.5l1.7-6.5L38,41.3
				c-0.5,0-1,0.2-1.3,0.6l-1.8,2.3l-5.3,2.6l-2,2.4L71,49.2z"/>
		</g>
		<g>
			<path class="st52" d="M63.8,47.2C63.8,47.2,63.8,47.2,63.8,47.2c0,0.1,0.1,0.1,0.1,0.1c0,0,0.1,0,0.1,0c0.1,0,0.1,0.1,0.1,0.1
				c0.1,0.1,0.2,0.2,0.4,0.3c0,0,0.1,0.1,0.1,0.1c0,0,0,0,0,0c0,0-0.1,0-0.1-0.1c-0.1-0.1-0.2-0.1-0.3-0.2c-0.1-0.1-0.2-0.1-0.3-0.2
				c0,0,0,0,0,0c0,0,0,0,0,0c0,0.3,0,0.6,0,0.9c0,0.1,0,0.2,0,0.4c0,0,0,0,0,0c0,0,0,0,0,0.1c0,0,0,0,0,0c0,0.1,0,0.3,0,0.4
				c0,0,0,0,0,0c0,0-0.1,0-0.1,0c0,0,0-0.1,0-0.1c0-0.5,0-1,0-1.5c0-0.1,0-0.1,0-0.2c0,0,0,0,0,0c0,0,0,0,0,0c0,0,0,0,0,0.1
				c0,0.1-0.1,0.1-0.2,0.1c-0.1,0.1-0.3,0.1-0.4,0.2c-0.1,0-0.1,0-0.2,0.1c0,0,0,0,0,0c0,0,0,0,0.1-0.1c0.2-0.1,0.3-0.2,0.5-0.3
				c0.1,0,0.1-0.1,0.2-0.1c0,0,0,0,0,0C63.7,47.3,63.7,47.2,63.8,47.2c-0.1,0-0.1-0.1-0.1-0.1c0,0,0,0,0-0.1c0-0.2,0-0.4,0.1-0.6
				c0,0,0-0.1,0-0.1c0,0,0,0,0,0c0,0.1,0,0.1,0,0.2c0,0.1,0,0.2,0,0.2c0,0.1,0,0.2,0,0.2C63.8,47.1,63.8,47.1,63.8,47.2z"/>
			<path class="st52" d="M66,49.2c0,0-0.1,0-0.1,0c0,0,0,0,0,0c0-0.6,0-1.1,0-1.7c0,0,0-0.1,0-0.1c0,0,0,0,0,0c0,0,0,0-0.1,0
				c-0.1,0-0.1,0-0.2,0c-0.1,0-0.3,0-0.4,0c-0.1,0-0.1,0-0.2,0c0,0,0,0,0,0c0.1,0,0.1,0,0.2,0c0.1,0,0.2,0,0.3,0c0.1,0,0.2,0,0.3,0
				c0,0,0.1,0,0.1,0c0,0,0,0,0,0c0,0,0,0,0.1,0c0,0,0,0,0,0c0,0,0-0.1,0-0.1c0-0.1,0-0.1,0.1-0.2c0.1-0.2,0.2-0.3,0.4-0.5
				c0,0,0,0,0,0c0,0,0,0,0,0c0,0.1-0.1,0.1-0.1,0.2c-0.1,0.1-0.1,0.3-0.2,0.4c0,0-0.1,0.1-0.1,0.1c0,0,0,0,0,0.1c0,0,0,0.1,0,0.1
				c0,0,0,0,0,0c0,0,0,0,0.1,0c0.1,0,0.1,0.1,0.1,0.2c0.1,0.1,0.1,0.3,0.2,0.4c0,0,0,0.1,0.1,0.1c0,0,0,0,0,0c0,0,0,0,0,0
				c-0.2-0.2-0.3-0.5-0.5-0.7C66,48,66,48.6,66,49.2z"/>
			<path class="st52" d="M67.5,46.4c0.1,0.2,0.2,0.4,0.3,0.5c0,0.1,0.1,0.1,0.1,0.2c0,0,0,0,0.1,0c0,0,0.1,0,0.1,0c0,0,0.1,0,0.1,0
				c0.1,0,0.1,0,0.2,0c0,0,0.1,0,0.1,0c0.1,0,0.2,0,0.2,0c0.1,0,0.2,0,0.3,0c0,0,0,0,0,0c-0.3,0-0.6,0-0.9,0c0,0,0,0,0,0
				c0,0,0,0,0,0c0,0.1,0,0.3,0,0.4c0,0.3,0,0.5,0,0.8c0,0.2,0,0.3,0,0.5c0,0,0,0,0,0c0,0-0.1,0-0.1,0c0-0.5,0-1.1,0-1.6
				c-0.2,0.2-0.3,0.4-0.4,0.6c0,0,0,0,0,0c0,0,0,0,0-0.1c0.1-0.2,0.2-0.4,0.3-0.6c0,0,0.1-0.1,0.1-0.1c0,0,0,0,0,0c0,0,0-0.1,0-0.1
				c0,0,0,0,0,0c0,0,0,0-0.1,0c-0.1,0-0.1-0.1-0.1-0.2c-0.1-0.1-0.1-0.3-0.2-0.4C67.5,46.6,67.5,46.5,67.5,46.4
				C67.5,46.5,67.5,46.4,67.5,46.4C67.5,46.4,67.5,46.4,67.5,46.4z"/>
		</g>
	</g>
	<g>
		<g>
			<path class="st53" d="M61.2,35v42H72V35c0-1-0.8-1.8-1.8-1.8H63C62,33.2,61.2,34,61.2,35"/>
			<path class="st7" d="M61.2,35v2.6H72V35c0-1-0.8-1.8-1.8-1.8H63C62,33.2,61.2,34,61.2,35"/>
			<path class="st54" d="M64.4,58.1h4.5c0.8,0,1.4-0.6,1.4-1.4V46.1c0-0.8-0.6-1.4-1.4-1.4h-4.5c-0.8,0-1.4,0.6-1.4,1.4v10.6
				C62.9,57.5,63.6,58.1,64.4,58.1"/>
			<path class="st55" d="M65.2,56.1c-0.5,0-1-0.4-1-1v-6.6c0-0.5,0.4-1,1-1H68c0.5,0,1,0.4,1,1v6.6c0,0.5-0.4,1-1,1H65.2 M65.2,48.1
				c-0.3,0-0.5,0.2-0.5,0.5v6.6c0,0.3,0.2,0.5,0.5,0.5H68c0.3,0,0.5-0.2,0.5-0.5v-6.6c0-0.3-0.2-0.5-0.5-0.5H65.2z"/>
			<path class="st55" d="M65.5,47.2c0-0.2,0.2-0.4,0.4-0.4h1.5c0.2,0,0.4,0.2,0.4,0.4v0.9h-2.3V47.2z M67.3,47.2H66v0.4h1.3V47.2z"
				/>
			<rect x="65.1" y="48.6" class="st55" width="3" height="1.4"/>
			<rect x="65.1" y="50.3" class="st55" width="3" height="1.4"/>
			<rect x="65.1" y="52.1" class="st55" width="3" height="1.4"/>
			<rect x="65.1" y="53.8" class="st55" width="3" height="1.4"/>
			<polygon class="st55" points="66,63.2 70.3,67.5 67.8,67.5 69.1,71.2 64.3,66.3 66.8,66.3 			"/>
			<rect x="59.7" y="77" class="st56" width="13.9" height="1.7"/>
			<rect x="60" y="42" class="st57" width="1.2" height="2"/>
			<path class="st58" d="M60,43.1h-2.9v11c0,2.4-1.9,4.3-4.3,4.3h-3.5"/>
		</g>
		<g>
			<path class="st59" d="M16.2,79.8h-3.9c-0.8,0-1.5-0.7-1.5-1.5v-3c0-0.8,0.7-1.5,1.5-1.5h3.9c0.8,0,1.5,0.7,1.5,1.5v3
				C17.6,79.2,17,79.8,16.2,79.8z"/>
			<path class="st6" d="M32.8,44.4v30.9H12.2c-1.5,0-2.7-1.2-2.6-2.7l0.2-6.8c0-1,0.2-2,0.4-2.9l1.1-4.3c0.4-1.7,1.2-3.3,2.3-4.7
				l6.4-8.1c0.7-0.9,1.8-1.4,3-1.4H32.8z"/>
			<path class="st7" d="M13.9,65l6,0.7c0.9,0.1,1.7-0.5,1.9-1.4l0,0c0.2-0.9-0.3-1.7-1.2-2l-5.8-1.7c-1-0.3-2.1,0.4-2.2,1.4l-0.2,1
				C12.3,64,13,64.9,13.9,65z"/>
			<path class="st6" d="M13.2,54.5L9.8,54C9.4,53.9,9,53.5,9,53.1v-1.1C9,51.4,9.5,51,10,51h3.2c0.5,0,0.9,0.4,0.9,0.9l0.1,1.3
				L13.2,54.5z"/>
			<path class="st7" d="M32.8,53.9H17.6c-0.6,0-0.9-0.7-0.6-1.2l4.2-5.5c0.4-0.6,1.2-1,1.9-1h9.7V53.9z"/>
			<path class="st59" d="M49,79.8h3.9c0.8,0,1.5-0.7,1.5-1.5v-3c0-0.8-0.7-1.5-1.5-1.5H49c-0.8,0-1.5,0.7-1.5,1.5v3
				C47.6,79.2,48.2,79.8,49,79.8z"/>
			<path class="st6" d="M32.4,44.4v30.9H53c1.5,0,2.7-1.2,2.6-2.7l-0.2-6.8c0-1-0.2-2-0.4-2.9l-1.1-4.3c-0.4-1.7-1.2-3.3-2.3-4.7
				l-6.4-8.1c-0.7-0.9-1.8-1.4-3-1.4H32.4z"/>
			<path class="st7" d="M51.3,65l-6,0.7c-0.9,0.1-1.7-0.5-1.9-1.4l0,0c-0.2-0.9,0.3-1.7,1.2-2l5.8-1.7c1-0.3,2.1,0.4,2.2,1.4l0.2,1
				C52.9,64,52.2,64.9,51.3,65z"/>
			<path class="st6" d="M52,54.5l3.4-0.5c0.5-0.1,0.8-0.5,0.8-0.9v-1.1c0-0.5-0.4-0.9-0.9-0.9H52c-0.5,0-0.9,0.4-0.9,0.9L51,53.2
				L52,54.5z"/>
			<path class="st7" d="M32.4,53.9h15.2c0.6,0,0.9-0.7,0.6-1.2L44,47.2c-0.4-0.6-1.2-1-1.9-1h-9.7V53.9z"/>
		</g>
		<path class="st59" d="M25.4,64.4L25.4,64.4c0,1.1,0.9,1.9,1.9,1.9h11.5c1.1,0,1.9-0.9,1.9-1.9v0c0-1.1-0.9-1.9-1.9-1.9H27.4
			C26.3,62.5,25.4,63.3,25.4,64.4z"/>
		<path class="st7" d="M33.7,75.8h-6.6c-0.6,0-1.1-0.5-1.1-1.1v-0.6c0-0.6,0.5-1.1,1.1-1.1h6.6c0.6,0,1.1,0.5,1.1,1.1v0.6
			C34.8,75.3,34.3,75.8,33.7,75.8z"/>
		<path class="st7" d="M31.5,75.8h6.6c0.6,0,1.1-0.5,1.1-1.1v-0.6c0-0.6-0.5-1.1-1.1-1.1h-6.6c-0.6,0-1.1,0.5-1.1,1.1v0.6
			C30.4,75.3,30.9,75.8,31.5,75.8z"/>
	</g>
</g>
</svg>
