<svg id="Layer_1" data-name="Layer 1" xmlns="http://www.w3.org/2000/svg" viewBox="0 0 96 96">
  <defs>
    <style>
      .cls-1 {
        fill: #dbf0ee;
      }

      .cls-2 {
        fill: #fad4ca;
      }

      .cls-3 {
        fill: #006eaa;
      }

      .cls-4 {
        fill: #7e3025;
      }

      .cls-5 {
        fill: #2684b7;
      }

      .cls-6 {
        fill: #cce2ee;
      }

      .cls-7 {
        fill: #f8f7f7;
      }

      .cls-8 {
        fill: #ab6044;
      }

      .cls-9 {
        fill: #a14c2c;
      }

      .cls-10, .cls-11 {
        fill: none;
      }

      .cls-10 {
        stroke: #c08872;
        stroke-miterlimit: 10;
        stroke-width: 0.39px;
      }

      .cls-11 {
        stroke: #8c473d;
        stroke-linecap: round;
        stroke-linejoin: round;
        stroke-width: 0.87px;
      }
    </style>
  </defs>
  <g>
    <path class="cls-1" d="M87.81,47.23c0-12.36-.77-18.34-2.3-25.06S80.79,10.49,75.94,7.29,63.66,2.5,53.62,2.5,36.14,4.1,31.29,7.29s-8.07,8.22-9.69,15-2.43,12.61-2.43,26.44.77,18.34,2.3,25.06S26.19,85.51,31,88.71,43.32,93.5,53.36,93.5s17.48-1.6,22.33-4.79,8.07-8.22,9.69-15S87.81,59.6,87.81,47.23Z"/>
    <path class="cls-2" d="M19.34,58.05a76.13,76.13,0,0,0,2.13,15.78Q23.77,83.91,31,88.71T53.36,93.5q15.06,0,22.33-4.79t9.69-15a86.5,86.5,0,0,0,2.16-15.62Z"/>
    <g>
      <path class="cls-3" d="M46.11,57.34V47.82a4,4,0,0,1,3.94-3.94H84.6a3.94,3.94,0,0,1,3.93,3.94v9.52"/>
      <path class="cls-4" d="M93.19,73.1h-1l-3.24-8.27A1.38,1.38,0,0,0,87.65,64H46.5a1.38,1.38,0,0,0-1.28.87L42,73.1H41l1.62-12.84h49Z"/>
      <path class="cls-5" d="M42.58,60.26V58a1.15,1.15,0,0,1,1.14-1.15H90.43A1.15,1.15,0,0,1,91.57,58v2.23"/>
    </g>
    <g>
      <rect class="cls-6" x="36.61" y="20.1" width="17.02" height="17.02" rx="0.23"/>
      <rect class="cls-7" x="38.51" y="22" width="13.22" height="13.22"/>
      <rect class="cls-6" x="46.62" y="8.46" width="10.21" height="10.21" rx="0.23"/>
      <rect class="cls-7" x="48.4" y="10.24" width="6.65" height="6.65"/>
    </g>
    <g>
      <rect class="cls-3" x="27.01" y="25.09" width="0.84" height="14.47"/>
      <path class="cls-3" d="M23.1,39.56V38.17A1.19,1.19,0,0,1,24.29,37h7.52A1.19,1.19,0,0,1,33,38.17v1.39Z"/>
      <path class="cls-3" d="M37.26,23.28l-4.87,3.6-3.1-5.51a.84.84,0,0,1,.24-1.09l2.14-1.59a1,1,0,0,1,1.34.12Z"/>
      <rect class="cls-3" x="29.74" y="19.67" width="0.84" height="7.22" transform="translate(30.95 -14.81) rotate(53.53)"/>
    </g>
    <g>
      <g>
        <rect class="cls-8" x="2.81" y="39.56" width="38.51" height="19.4" rx="0.15"/>
        <rect class="cls-9" x="22.76" y="40.62" width="17.47" height="7.43" rx="0.29"/>
        <rect class="cls-9" x="3.91" y="40.62" width="17.47" height="7.43" rx="0.29"/>
        <rect class="cls-9" x="22.76" y="50.42" width="17.47" height="7.43" rx="0.29"/>
        <rect class="cls-9" x="3.91" y="50.42" width="17.47" height="7.43" rx="0.29"/>
        <path class="cls-4" d="M7.77,73.1H6.71a.66.66,0,0,1-.66-.65L6,59H9.6L8.43,72.5A.66.66,0,0,1,7.77,73.1Z"/>
        <path class="cls-4" d="M37.41,73.1H36.35a.66.66,0,0,1-.66-.59L34.34,59H38l.09,13.47A.67.67,0,0,1,37.41,73.1Z"/>
        <line class="cls-10" x1="2.81" y1="49.27" x2="41.32" y2="49.27"/>
      </g>
      <line class="cls-11" x1="13.96" y1="43.51" x2="11.33" y2="43.51"/>
      <line class="cls-11" x1="13.96" y1="53.21" x2="11.33" y2="53.21"/>
      <line class="cls-11" x1="32.81" y1="43.51" x2="30.18" y2="43.51"/>
      <line class="cls-11" x1="32.81" y1="53.21" x2="30.18" y2="53.21"/>
    </g>
  </g>
</svg>
