<?xml version="1.0" encoding="utf-8"?>
<!-- Generator: Adobe Illustrator 27.2.0, SVG Export Plug-In . SVG Version: 6.00 Build 0)  -->
<svg version="1.1" id="Layer_1" xmlns="http://www.w3.org/2000/svg" xmlns:xlink="http://www.w3.org/1999/xlink" x="0px" y="0px"
	 viewBox="0 0 96 96" style="enable-background:new 0 0 96 96;" xml:space="preserve">
<style type="text/css">
	.st0{fill:#DBF0EE;}
	.st1{fill:#FAD4CA;}
	.st2{fill:#F8F7F7;}
	.st3{fill:#EDEDED;}
	.st4{clip-path:url(#SVGID_00000165931965144459345480000008359442793537693074_);}
	.st5{fill:#CCE2EE;}
	.st6{fill:#EC6450;}
	.st7{fill:#FFFFFF;}
	.st8{fill:none;stroke:#EDEDED;stroke-width:0.32;stroke-miterlimit:10;}
	.st9{fill:none;stroke:#E0C3B9;stroke-width:0.43;stroke-miterlimit:10;}
	.st10{fill:#F9C674;}
	.st11{fill:#43B0D5;}
	.st12{fill:#99C5DD;}
	.st13{fill:#A9756D;}
	.st14{fill:#F2978A;}
	.st15{fill:#DEF3F9;}
	.st16{fill:#82D8EC;}
	.st17{fill:#FDD399;}
	.st18{fill:#C5E5F8;}
	.st19{fill:#CFCFCF;}
	.st20{clip-path:url(#SVGID_00000101791569195121695320000013164894505848826248_);}
	.st21{fill:#006EAA;}
	.st22{fill:#7E3025;}
	.st23{fill:#2684B7;}
	.st24{fill:#AB6044;}
	.st25{fill:#A14C2C;}
	.st26{fill:none;stroke:#C08872;stroke-width:0.39;stroke-miterlimit:10;}
	.st27{fill:none;stroke:#8C473D;stroke-width:0.87;stroke-linecap:round;stroke-linejoin:round;}
	.st28{fill:#E7E7E7;}
	.st29{fill:#8C473D;}
	.st30{fill:#878787;}
	.st31{fill:none;stroke:#A9756D;stroke-width:0.5;stroke-miterlimit:10;}
	.st32{fill:#F29140;}
	.st33{fill:#E2E2E2;}
	.st34{fill:#DCEFFB;}
	.st35{fill:#B8E1DD;}
	.st36{fill:#13253B;}
	.st37{fill:none;stroke:#13253B;stroke-width:0.57;stroke-miterlimit:10;}
	.st38{fill:none;stroke:#CFCFCF;stroke-width:0.88;stroke-linecap:round;stroke-linejoin:round;}
	.st39{fill:none;stroke:#F9C674;stroke-width:1.79;stroke-miterlimit:10;}
	.st40{fill:none;stroke:#F29140;stroke-width:0.9;stroke-miterlimit:10;}
	.st41{fill:none;stroke:#99C5DD;stroke-width:0.9;stroke-linecap:round;stroke-linejoin:round;}
	.st42{fill:#96371F;}
	.st43{fill:#5B5755;}
	.st44{fill:#141414;}
	.st45{fill:#B2B2B2;}
	.st46{fill:#C28B7D;}
	.st47{fill:#B16B5A;}
	.st48{fill:#F2F1E6;}
	.st49{fill:#E1F3F8;}
	.st50{fill:#87CFC8;}
	.st51{fill:#B3D6D2;}
	.st52{fill-rule:evenodd;clip-rule:evenodd;fill:#6E958D;}
	.st53{fill:#02786B;}
	.st54{fill:#03243B;}
	.st55{fill:#4BB2A9;}
	.st56{fill:#858485;}
	.st57{fill:#909295;}
	.st58{fill:none;stroke:#FFFFFF;stroke-width:0.6749;stroke-miterlimit:10;}
	.st59{fill:#175160;}
	.st60{fill:#F39822;}
	.st61{fill:#1795CA;}
	.st62{fill:#4AA9D2;}
	.st63{fill:#F26767;}
	.st64{fill:#F48586;}
	.st65{fill:#CFCECD;}
	.st66{fill:#F0EFEF;}
	.st67{fill:#E7EDF1;}
	.st68{fill:#D93A3A;}
	.st69{fill:#EB605F;}
	.st70{fill:#D2E9F3;}
	.st71{fill:#863E33;}
	.st72{fill:#8C473D;stroke:#E0C3B9;stroke-width:0.87;stroke-miterlimit:10;}
	.st73{fill:#C08872;}
</style>
<g>
	<g>
		<path class="st15" d="M82.3,47.2c0-12.4-0.8-18.3-2.3-25.1s-4.7-11.7-9.6-14.9S58.2,2.5,48.1,2.5S30.6,4.1,25.8,7.3
			s-8.1,8.2-9.7,15c-1.6,6.8-2.4,12.6-2.4,26.5s0.8,18.3,2.3,25.1s4.7,11.7,9.6,14.9s12.3,4.8,22.3,4.8s17.5-1.6,22.3-4.8
			s8.1-8.2,9.7-15S82.3,59.6,82.3,47.2z"/>
		<path class="st19" d="M13.7,49.3c0,13.4,0.8,17.9,2.3,24.5c1.5,6.7,4.7,11.7,9.6,14.9c4.8,3.2,12.3,4.8,22.3,4.8
			c10,0,17.5-1.6,22.3-4.8c4.9-3.2,8.1-8.2,9.7-15c1.5-6.4,2.4-13.3,2.4-24.4H13.7z"/>
	</g>
</g>
<g>
	<rect x="19" y="21.1" class="st2" width="33.1" height="34.9"/>
	<g>
		<rect x="19.8" y="21.8" class="st3" width="31.6" height="5.8"/>
		<rect x="19.8" y="28.3" class="st3" width="31.6" height="5.7"/>
		<rect x="19.8" y="34.8" class="st3" width="31.6" height="5.8"/>
		<rect x="19.8" y="41.2" class="st3" width="31.6" height="5.8"/>
		<rect x="19.8" y="47.7" class="st3" width="31.6" height="5.8"/>
	</g>
</g>
<g>
	<g>
		<path class="st7" d="M41.3,52.5h-0.2v-2.1c0-0.3-0.3-0.4-0.6-0.4h-0.1v-1.7h-5.3V50H35c-0.3,0-0.6,0.1-0.6,0.4v2.1h-0.2
			c-0.3,0-0.6,0.2-0.6,0.5v7.4h8.2V53C41.7,52.7,41.6,52.5,41.3,52.5L41.3,52.5z"/>
		<path class="st19" d="M33.9,59.6C33.9,59.6,33.9,59.6,33.9,59.6l0-6.4c0,0,0,0,0,0s0,0,0,0L33.9,59.6C34,59.6,34,59.6,33.9,59.6z"
			/>
		<path class="st19" d="M34.7,59.6C34.7,59.6,34.7,59.6,34.7,59.6L34.7,59.6l0-6.4c0,0,0,0,0,0l0,0c0,0,0,0,0,0L34.7,59.6
			C34.7,59.6,34.7,59.6,34.7,59.6z"/>
		<path class="st19" d="M35.4,59.6C35.4,59.6,35.4,59.6,35.4,59.6l0-6.4c0,0,0,0,0,0c0,0,0,0,0,0l0,0L35.4,59.6
			C35.4,59.6,35.4,59.6,35.4,59.6L35.4,59.6z"/>
		<path class="st19" d="M36.2,59.6C36.2,59.6,36.1,59.6,36.2,59.6l0-6.4c0,0,0,0,0,0c0,0,0,0,0,0L36.2,59.6
			C36.2,59.6,36.2,59.6,36.2,59.6z"/>
		<path class="st19" d="M36.9,59.6C36.9,59.6,36.9,59.6,36.9,59.6l0-6.4c0,0,0,0,0,0c0,0,0,0,0,0L36.9,59.6
			C36.9,59.6,36.9,59.6,36.9,59.6z"/>
		<path class="st19" d="M37.6,59.6C37.6,59.6,37.6,59.6,37.6,59.6l0-6.4c0,0,0,0,0,0c0,0,0,0,0,0l0,0L37.6,59.6
			C37.7,59.6,37.7,59.6,37.6,59.6L37.6,59.6z"/>
		<path class="st19" d="M38.4,59.6C38.4,59.6,38.4,59.6,38.4,59.6l0-6.4c0,0,0,0,0,0c0,0,0,0,0,0L38.4,59.6
			C38.4,59.6,38.4,59.6,38.4,59.6z"/>
		<path class="st19" d="M39.1,59.6C39.1,59.6,39.1,59.6,39.1,59.6l0-6.4c0,0,0,0,0,0c0,0,0,0,0,0L39.1,59.6
			C39.1,59.6,39.1,59.6,39.1,59.6z"/>
		<path class="st19" d="M39.9,59.6C39.9,59.6,39.8,59.6,39.9,59.6l0-6.4c0,0,0,0,0,0c0,0,0,0,0,0l0,0L39.9,59.6
			C39.9,59.6,39.9,59.6,39.9,59.6L39.9,59.6z"/>
		<path class="st19" d="M40.6,59.6C40.6,59.6,40.6,59.6,40.6,59.6l0-6.4c0,0,0,0,0,0c0,0,0,0,0,0L40.6,59.6
			C40.6,59.6,40.6,59.6,40.6,59.6z"/>
		<path class="st19" d="M41.3,59.6C41.3,59.6,41.3,59.6,41.3,59.6l0-6.4c0,0,0,0,0,0c0,0,0,0,0,0L41.3,59.6
			C41.4,59.6,41.4,59.6,41.3,59.6z"/>
		<path class="st7" d="M43.1,49h-2.5v-0.8c0-0.2-0.1-0.1-0.2-0.1h-0.2l-0.7-11.1c0-0.4-0.4-0.8-0.8-0.7l0,0h-2.1
			c-0.4,0-0.8,0.3-0.8,0.8l0,0l-0.7,11h-0.2c-0.2,0-0.4-0.1-0.4,0.1V49h-2.3c-0.2,0-0.3,0.1-0.3,0.3l0,0c0,0.2,0.1,0.3,0.3,0.3
			c0,0,0,0,0,0h10.9c0.2,0,0.3-0.1,0.3-0.3c0,0,0,0,0,0C43.4,49.1,43.2,49,43.1,49L43.1,49z"/>
		<path class="st60" d="M41.4,61.5v-1.1h-7.6v1.1c-1.1,0.4-1.8,1.4-1.7,2.5v13.5c0,1.5,1.2,2.9,2.7,2.9h5.8c1.5,0,2.6-1.5,2.6-2.9
			V64C43.2,62.9,42.5,61.8,41.4,61.5L41.4,61.5z"/>
		<path class="st7" d="M33.8,66.5h7.6c0.9,0,1.6,0.7,1.6,1.6v4.5c0,0.9-0.7,1.6-1.6,1.6h-7.6c-0.9,0-1.6-0.7-1.6-1.6V68
			C32.2,67.1,32.9,66.5,33.8,66.5z"/>
		<path class="st7" d="M33.1,60.1h9.1c0.2,0,0.3,0.1,0.3,0.3v0.1c0,0.2-0.1,0.3-0.3,0.3h-9.1c-0.2,0-0.3-0.1-0.3-0.3v-0.1
			C32.8,60.2,32.9,60.1,33.1,60.1z"/>
	</g>
	<g>
		<path class="st61" d="M35.2,72.2v3.5H32v-3.5c0-0.7,0.6-1.3,1.3-1.3h0.6C34.6,70.9,35.2,71.5,35.2,72.2L35.2,72.2
			C35.2,72.2,35.2,72.2,35.2,72.2z"/>
		<path class="st62" d="M32,75.7v-3.5c0-0.7,0.6-1.3,1.3-1.3h0.3v4.8L32,75.7L32,75.7z"/>
		<path class="st7" d="M32,79.2v-3.6h3.2v3.6c0,0.7-0.6,1.3-1.3,1.3h-0.6C32.6,80.5,32,80,32,79.2C32,79.2,32,79.2,32,79.2z"/>
	</g>
	<g>
		<path class="st63" d="M32.2,77.4h3.5l0,3.2h-3.5c-0.7,0-1.3-0.6-1.3-1.3l0,0l0-0.6C30.9,78,31.4,77.4,32.2,77.4
			C32.2,77.4,32.2,77.4,32.2,77.4z"/>
		<path class="st64" d="M35.7,80.5l-3.5,0c-0.7,0-1.3-0.6-1.3-1.3l0-0.3l4.8,0L35.7,80.5z"/>
		<path class="st7" d="M39.2,80.5h-3.6l0-3.2l3.6,0c0.7,0,1.3,0.6,1.3,1.3l0,0l0,0.6C40.5,79.9,39.9,80.5,39.2,80.5L39.2,80.5
			L39.2,80.5z"/>
	</g>
	<g>
		<path class="st61" d="M60.5,36.2L60.5,36.2l-12.7-0.1v0.1c0,1.5-0.7,2.9-2,3.6c-1.9,1.1-3.2,3.2-3.2,5.7v31.4
			c0,1.9,1.4,3.5,3.2,3.5h16.8c1.7,0,3.2-1.6,3.2-3.5V45.5c0-2.5-1.3-4.6-3.2-5.7C61.2,39.1,60.5,37.7,60.5,36.2z"/>
		<path class="st65" d="M47,35h14.3v1.5c0,0.7-0.6,1.2-1.2,1.2H48.2c-0.7,0-1.2-0.6-1.2-1.2L47,35L47,35L47,35z"/>
		<path class="st7" d="M49,25.4h10.4c1.7,0,3,1.3,3,3v5.4c0,1.7-1.3,3-3,3H49c-1.7,0-3-1.3-3-3v-5.4C46,26.7,47.3,25.4,49,25.4z"/>
		<path class="st7" d="M49.3,50.3h9.6c2.8,0,5,2.3,5,5v9.3c0,2.8-2.3,5-5,5h-9.6c-2.8,0-5-2.3-5-5v-9.3
			C44.3,52.6,46.5,50.3,49.3,50.3z"/>
		<path class="st66" d="M46.7,26.7L46.7,26.7c0.2,0,0.3,0.2,0.3,0.4v8.1c0,0.2-0.2,0.4-0.3,0.4l0,0c-0.2,0-0.3-0.2-0.3-0.4v-8.1
			C46.4,26.9,46.6,26.7,46.7,26.7z"/>
		<path class="st66" d="M48.1,26.7L48.1,26.7c0.2,0,0.3,0.2,0.3,0.4v8.1c0,0.2-0.2,0.4-0.3,0.4l0,0c-0.2,0-0.3-0.2-0.3-0.4v-8.1
			C47.7,26.9,47.9,26.7,48.1,26.7z"/>
		<path class="st66" d="M49.4,26.7L49.4,26.7c0.2,0,0.3,0.2,0.3,0.4v8.1c0,0.2-0.2,0.4-0.3,0.4l0,0c-0.2,0-0.3-0.2-0.3-0.4v-8.1
			C49.1,26.9,49.2,26.7,49.4,26.7z"/>
		<path class="st66" d="M50.7,26.7L50.7,26.7c0.2,0,0.3,0.2,0.3,0.4v8.1c0,0.2-0.2,0.4-0.3,0.4l0,0c-0.2,0-0.3-0.2-0.3-0.4v-8.1
			C50.4,26.9,50.5,26.7,50.7,26.7z"/>
		<path class="st66" d="M52.1,26.7L52.1,26.7c0.2,0,0.3,0.2,0.3,0.4v8.1c0,0.2-0.2,0.4-0.3,0.4l0,0c-0.2,0-0.3-0.2-0.3-0.4v-8.1
			C51.7,26.9,51.9,26.7,52.1,26.7z"/>
		<path class="st66" d="M53.4,26.7L53.4,26.7c0.2,0,0.3,0.2,0.3,0.4v8.1c0,0.2-0.2,0.4-0.3,0.4l0,0c-0.2,0-0.3-0.2-0.3-0.4v-8.1
			C53,26.9,53.2,26.7,53.4,26.7z"/>
		<path class="st66" d="M54.7,26.7L54.7,26.7c0.2,0,0.3,0.2,0.3,0.4v8.1c0,0.2-0.2,0.4-0.3,0.4l0,0c-0.2,0-0.3-0.2-0.3-0.4v-8.1
			C54.4,26.9,54.5,26.7,54.7,26.7z"/>
		<path class="st66" d="M56,26.7L56,26.7c0.2,0,0.3,0.2,0.3,0.4v8.1c0,0.2-0.2,0.4-0.3,0.4l0,0c-0.2,0-0.3-0.2-0.3-0.4v-8.1
			C55.7,26.9,55.9,26.7,56,26.7z"/>
		<path class="st66" d="M57.4,26.7L57.4,26.7c0.2,0,0.3,0.2,0.3,0.4v8.1c0,0.2-0.2,0.4-0.3,0.4l0,0c-0.2,0-0.3-0.2-0.3-0.4v-8.1
			C57,26.9,57.2,26.7,57.4,26.7z"/>
		<path class="st66" d="M58.7,26.7L58.7,26.7c0.2,0,0.3,0.2,0.3,0.4v8.1c0,0.2-0.2,0.4-0.3,0.4l0,0c-0.2,0-0.3-0.2-0.3-0.4v-8.1
			C58.4,26.9,58.5,26.7,58.7,26.7z"/>
		<path class="st66" d="M60,26.7L60,26.7c0.2,0,0.3,0.2,0.3,0.4v8.1c0,0.2-0.2,0.4-0.3,0.4l0,0c-0.2,0-0.3-0.2-0.3-0.4v-8.1
			C59.7,26.9,59.8,26.7,60,26.7z"/>
		<path class="st66" d="M61.3,26.7L61.3,26.7c0.2,0,0.3,0.2,0.3,0.4v8.1c0,0.2-0.2,0.4-0.3,0.4l0,0c-0.2,0-0.3-0.2-0.3-0.4v-8.1
			C61,26.9,61.2,26.7,61.3,26.7z"/>
	</g>
	<g>
		<path class="st67" d="M68.8,69.5v7.6c0,1.9-1.5,3.4-3.4,3.4H44.1c-1.9,0-3.4-1.5-3.4-3.4v-7.6c0-1.9,1.5-3.4,3.4-3.4h21.3
			C67.3,66.2,68.8,67.7,68.8,69.5z"/>
		<circle class="st68" cx="66" cy="76.8" r="2.1"/>
		<circle class="st69" cx="66.2" cy="76.9" r="1.6"/>
		<path class="st7" d="M66.1,78c-0.1-0.2,0.1-0.5,0.4-0.8c0.3-0.3,0.7-0.4,0.8-0.2c0.1,0.2-0.1,0.5-0.4,0.8
			C66.6,78.1,66.2,78.2,66.1,78z"/>
		<circle class="st68" cx="58.6" cy="76.8" r="2.1"/>
		<circle class="st69" cx="58.9" cy="76.9" r="1.6"/>
		<path class="st7" d="M58.7,78c-0.1-0.2,0.1-0.5,0.4-0.8c0.3-0.3,0.7-0.4,0.8-0.2c0.1,0.2-0.1,0.5-0.4,0.8
			C59.2,78.1,58.8,78.2,58.7,78z"/>
		<circle class="st68" cx="51.3" cy="76.8" r="2.1"/>
		<circle class="st69" cx="51.5" cy="76.9" r="1.6"/>
		<path class="st7" d="M51.4,78c-0.1-0.2,0-0.5,0.4-0.8c0.4-0.3,0.7-0.4,0.8-0.2s0,0.5-0.4,0.8S51.5,78.2,51.4,78z"/>
		<circle class="st68" cx="43.9" cy="76.8" r="2.1"/>
		<circle class="st69" cx="44.2" cy="76.9" r="1.6"/>
		<path class="st7" d="M44.1,78c-0.1-0.2,0-0.5,0.4-0.8c0.3-0.3,0.7-0.4,0.8-0.2s0,0.5-0.4,0.8C44.6,78.1,44.2,78.2,44.1,78z"/>
		<circle class="st68" cx="65.9" cy="69.9" r="2.1"/>
		<circle class="st69" cx="66.2" cy="70.1" r="1.6"/>
		<path class="st7" d="M66.1,71.2c-0.1-0.2,0.1-0.5,0.4-0.8c0.3-0.3,0.7-0.4,0.8-0.2c0.1,0.2-0.1,0.5-0.4,0.8
			C66.6,71.2,66.2,71.3,66.1,71.2z"/>
		<circle class="st68" cx="58.6" cy="69.9" r="2.1"/>
		<circle class="st69" cx="58.9" cy="70.1" r="1.6"/>
		<circle class="st68" cx="51.3" cy="69.9" r="2.1"/>
		<circle class="st69" cx="51.5" cy="70.1" r="1.6"/>
		<path class="st7" d="M51.4,71.2c-0.1-0.2,0-0.5,0.4-0.8c0.4-0.3,0.7-0.4,0.8-0.2s0,0.5-0.4,0.8S51.5,71.3,51.4,71.2z"/>
		<circle class="st68" cx="43.9" cy="69.9" r="2.1"/>
		<circle class="st69" cx="44.2" cy="70.1" r="1.6"/>
		<path class="st7" d="M44.1,71.2c-0.1-0.2,0-0.5,0.4-0.8c0.3-0.3,0.7-0.4,0.8-0.2s0,0.5-0.4,0.8C44.6,71.2,44.2,71.3,44.1,71.2z"/>
		<path class="st7" d="M58.6,71.3c-0.1-0.2,0.1-0.5,0.4-0.8c0.3-0.3,0.7-0.4,0.8-0.2c0.1,0.2-0.1,0.5-0.4,0.8
			C59.1,71.3,58.8,71.4,58.6,71.3z"/>
	</g>
	<g>
		<circle class="st7" cx="29.8" cy="78" r="2.6"/>
		<path class="st70" d="M28.6,79.9l2-3.9c0-0.1,0.1-0.1,0.1,0l0,0c0.1,0,0.1,0.1,0,0.1l-2,3.9c0,0.1-0.1,0.1-0.1,0l0,0
			C28.6,80,28.6,79.9,28.6,79.9z"/>
	</g>
</g>
</svg>
