<svg width="431" height="201" viewBox="0 0 431 201" fill="none" xmlns="http://www.w3.org/2000/svg">
<path d="M207.5 23.666C207.5 23.666 205.75 58.083 131 120.333C141.5 120.333 156.451 115.341 203 116.333C210.5 81.833 213.5 54.166 207.5 23.666Z" fill="#000000"/>
<path d="M136.5 187.667L141.75 200.833C141.75 200.833 155.5 186.333 157.74 184.381C184.073 178.798 211.75 170.333 211.75 170.333C211.75 170.333 262.75 155.833 279.75 162.083C284.917 169.333 298.5 173.583 309.25 172.083C320 170.583 337 156.583 345.25 157.333C353.5 158.083 364.25 151.833 376.75 151.833C384.285 151.178 415.223 149.02 430.172 148.032C404.091 148.557 324.754 142.39 302.917 121.333C279.917 -0.182999 210.691 1.65015e-06 210.691 1.65015e-06C234.691 87 208.75 115.458 208.75 115.458L302.167 121.25L131 121.583L137.027 127.548L114.25 139.333C96.024 151.44 72.61 151.446 72.61 151.446C54.36 149.696 24 106.833 0 100.833C18 123.333 14.5 127.833 22 132.833C12 136.583 35.5 161.837 35.5 161.837C35.5 161.837 22.529 180.428 26.25 177.079C28.502 175.052 57.09 168.842 69.584 172.667C69.584 172.667 111.25 187.667 136.5 187.667Z" fill="#000000"/>
</svg>
