<svg id="Layer_1" data-name="Layer 1" xmlns="http://www.w3.org/2000/svg" viewBox="0 0 96 96">
  <defs>
    <style>
      .cls-1 {
        fill: #dceffb;
      }

      .cls-2 {
        fill: #b8e1dd;
      }

      .cls-3 {
        fill: #ededed;
      }

      .cls-4 {
        fill: #cce2ee;
      }

      .cls-5 {
        fill: #006eaa;
      }

      .cls-6 {
        fill: #43b0d5;
      }

      .cls-7 {
        fill: #13253b;
      }

      .cls-8 {
        fill: #f29140;
      }

      .cls-9 {
        fill: #f9c674;
      }

      .cls-10 {
        fill: #ec6450;
      }

      .cls-11, .cls-13, .cls-14, .cls-15, .cls-17 {
        fill: none;
      }

      .cls-11 {
        stroke: #13253b;
        stroke-width: 0.57px;
      }

      .cls-11, .cls-14, .cls-15 {
        stroke-miterlimit: 10;
      }

      .cls-12 {
        fill: #8c473d;
      }

      .cls-13 {
        stroke: #cfcfcf;
        stroke-width: 0.88px;
      }

      .cls-13, .cls-17 {
        stroke-linecap: round;
        stroke-linejoin: round;
      }

      .cls-14 {
        stroke: #f9c674;
        stroke-width: 1.79px;
      }

      .cls-15 {
        stroke: #f29140;
      }

      .cls-15, .cls-17 {
        stroke-width: 0.9px;
      }

      .cls-16 {
        fill: #f8f7f7;
      }

      .cls-17 {
        stroke: #99c5dd;
      }
    </style>
  </defs>
  <g>
    <path class="cls-1" d="M78,47.23c0-12.36-.77-18.34-2.3-25.06S71,10.49,66.11,7.29,53.83,2.5,43.79,2.5,26.31,4.1,21.46,7.29s-8.08,8.22-9.69,15S9.34,34.94,9.34,48.77s.77,18.34,2.3,25.06,4.72,11.68,9.57,14.88S33.49,93.5,43.53,93.5,61,91.9,65.86,88.71s8.07-8.22,9.69-15S78,59.6,78,47.23Z"/>
    <path class="cls-2" d="M9.34,48.77c0,13.82.77,18.34,2.3,25.06s4.72,11.68,9.57,14.88S33.49,93.5,43.53,93.5,61,91.9,65.86,88.71s8.07-8.22,9.69-15S78,59.6,78,47.23Z"/>
    <g>
      <rect class="cls-3" x="14.76" y="18.67" width="35.23" height="37.2"/>
      <g>
        <rect class="cls-4" x="15.57" y="19.44" width="33.65" height="6.12"/>
        <rect class="cls-4" x="15.57" y="26.33" width="33.65" height="6.12"/>
        <rect class="cls-4" x="15.57" y="33.23" width="33.65" height="6.12"/>
        <rect class="cls-4" x="15.57" y="40.12" width="33.65" height="6.12"/>
        <rect class="cls-4" x="15.57" y="47.02" width="33.65" height="6.12"/>
      </g>
    </g>
    <g>
      <g>
        <g>
          <g>
            <rect class="cls-5" x="71.86" y="48.81" width="3.51" height="27.17"/>
            <path class="cls-6" d="M71.86,43.71v8h3.51v-8a.76.76,0,0,0-.76-.76h-2A.76.76,0,0,0,71.86,43.71Z"/>
          </g>
          <rect class="cls-7" x="76.18" y="70.66" width="7.57" height="1.26" transform="translate(3.06 -3.29) rotate(2.41)"/>
          <g>
            <rect class="cls-8" x="70.39" y="52.07" width="3.51" height="27.17" transform="translate(-8.94 11.42) rotate(-8.53)"/>
            <polygon class="cls-9" points="71.86 51.96 68.39 52.48 69.52 48.73 71.86 51.96"/>
          </g>
        </g>
        <g>
          <rect class="cls-10" x="76.02" y="52.52" width="7.57" height="18.15" transform="translate(2.66 -3.29) rotate(2.41)"/>
          <polygon class="cls-10" points="79.3 45.53 79.19 48.09 81.54 48.19 81.62 46.25 79.3 45.53"/>
          <path class="cls-7" d="M83.57,52.05a7.65,7.65,0,0,0-1.06-1.38L81.83,50a1.58,1.58,0,0,1-.32-1.05l0-.72-2.35-.1,0,.72a1.32,1.32,0,0,1-.41,1l-.74.64a8.39,8.39,0,0,0-1.17,1.28l-.44.61,7.56.32Z"/>
          <g>
            <path class="cls-10" d="M77.33,44.13h6.06a.75.75,0,0,1,.75.75v7.65a0,0,0,0,1,0,0H76.57a0,0,0,0,1,0,0V44.88a.75.75,0,0,1,.75-.75Z" transform="translate(2.1 -3.33) rotate(2.41)"/>
            <line class="cls-11" x1="83.96" y1="52.69" x2="76.4" y2="52.37"/>
          </g>
          <path class="cls-3" d="M79.93,58.45h0a1,1,0,0,1-.94-1l.51-12.24,2,.08L81,57.51A1,1,0,0,1,79.93,58.45Z"/>
        </g>
        <path class="cls-12" d="M67.25,59.91h19.4a0,0,0,0,1,0,0V79.67A1.29,1.29,0,0,1,85.37,81H68.55a1.29,1.29,0,0,1-1.29-1.29V59.91A0,0,0,0,1,67.25,59.91Z"/>
        <line class="cls-13" x1="67.25" y1="59.91" x2="86.66" y2="59.91"/>
      </g>
      <g>
        <g>
          <g>
            <path class="cls-8" d="M56.94,49.34V28.45a.9.9,0,0,1,1.17-.85l4,1.25a.89.89,0,0,1,.63.85V49.34Z"/>
            <path class="cls-9" d="M55.71,27.86h4.55a.75.75,0,0,1,.75.75v11.6a0,0,0,0,1,0,0H55a0,0,0,0,1,0,0V28.61A.75.75,0,0,1,55.71,27.86Z" transform="matrix(0.95, 0.3, -0.3, 0.95, 12.84, -15.79)"/>
          </g>
          <g>
            <path class="cls-8" d="M31.55,49.34V28.45a.89.89,0,0,0-1.16-.85l-4,1.25a.89.89,0,0,0-.63.85V49.34Z"/>
            <path class="cls-9" d="M27.48,27.86h6.06a0,0,0,0,1,0,0v11.6a.75.75,0,0,1-.75.75H28.23a.75.75,0,0,1-.75-.75V27.86a0,0,0,0,1,0,0Z" transform="translate(69.8 57.37) rotate(162.59)"/>
          </g>
        </g>
        <path class="cls-14" d="M50.46,32.43V29.81h0a3.08,3.08,0,0,0-3.08-3.09H42.17a3.08,3.08,0,0,0-3.08,3.09h0v2.62"/>
        <path class="cls-6" d="M44.19,29.8h.12A19.74,19.74,0,0,1,64,49.53V77.19A3.77,3.77,0,0,1,60.27,81H28.22a3.77,3.77,0,0,1-3.77-3.77V49.53A19.74,19.74,0,0,1,44.19,29.8Z"/>
        <path class="cls-9" d="M24.45,75.13v2.05A3.78,3.78,0,0,0,28.23,81h32A3.78,3.78,0,0,0,64,77.18V75.13Z"/>
        <rect class="cls-9" x="28.79" y="54.96" width="31.09" height="17.63" rx="1.51"/>
        <line class="cls-15" x1="28.79" y1="59.15" x2="59.88" y2="59.15"/>
        <path class="cls-16" d="M57.29,59.15a1,1,0,0,0-1,1v4.14a1,1,0,0,0,2.06,0V60.18A1,1,0,0,0,57.29,59.15Zm0,5.78a.63.63,0,1,1,.63-.62A.63.63,0,0,1,57.29,64.93Z"/>
        <path class="cls-17" d="M62.85,59.54V52.23a18.61,18.61,0,0,0-18.6-18.61h0A18.61,18.61,0,0,0,25.64,52.23v7.31"/>
        <path class="cls-16" d="M62.71,58.67a1,1,0,0,0-1,1v4.13a1,1,0,0,0,2.06,0V59.7A1,1,0,0,0,62.71,58.67Zm0,5.78a.63.63,0,1,1,.63-.63A.63.63,0,0,1,62.71,64.45Z"/>
      </g>
    </g>
  </g>
</svg>
