<svg id="Layer_1" data-name="Layer 1" xmlns="http://www.w3.org/2000/svg" xmlns:xlink="http://www.w3.org/1999/xlink" viewBox="0 0 96 96">
  <defs>
    <style>
      .cls-1 {
        fill: none;
      }

      .cls-2 {
        fill: #dbf0ee;
      }

      .cls-3 {
        fill: #fad4ca;
      }

      .cls-4 {
        fill: #f8f7f7;
      }

      .cls-10, .cls-11, .cls-5 {
        fill: #ededed;
      }

      .cls-6 {
        clip-path: url(#clip-path);
      }

      .cls-7 {
        fill: #cce2ee;
      }

      .cls-8 {
        fill: #ec6450;
      }

      .cls-9 {
        fill: #fff;
      }

      .cls-10 {
        stroke: #ededed;
        stroke-width: 0.32px;
      }

      .cls-10, .cls-11 {
        stroke-miterlimit: 10;
      }

      .cls-11 {
        stroke: #e0c3b9;
        stroke-width: 0.43px;
      }

      .cls-12 {
        fill: #f9c674;
      }

      .cls-13 {
        fill: #43b0d5;
      }

      .cls-14 {
        fill: #99c5dd;
      }

      .cls-15 {
        fill: #a9756d;
      }

      .cls-16 {
        fill: #f2978a;
      }
    </style>
    <clipPath id="clip-path">
      <path class="cls-1" d="M90.48,47.23c0-12.36-.76-18.34-2.3-25.06S83.46,10.49,78.62,7.29,66.33,2.5,56.29,2.5,38.81,4.1,34,7.29s-8.08,8.22-9.7,15-2.42,12.61-2.42,26.44.76,18.34,2.29,25.06,4.72,11.68,9.57,14.88S46,93.5,56,93.5s17.47-1.6,22.32-4.79,8.08-8.22,9.69-15S90.48,59.6,90.48,47.23Z"/>
    </clipPath>
  </defs>
  <g>
    <path class="cls-2" d="M90.48,47.23c0-12.36-.76-18.34-2.3-25.06S83.46,10.49,78.62,7.29,66.33,2.5,56.29,2.5,38.81,4.1,34,7.29s-8.08,8.22-9.7,15-2.42,12.61-2.42,26.44.76,18.34,2.29,25.06,4.72,11.68,9.57,14.88S46,93.5,56,93.5s17.47-1.6,22.32-4.79,8.08-8.22,9.69-15S90.48,59.6,90.48,47.23Z"/>
    <path class="cls-3" d="M21.86,45.59c0,1,0,2.07,0,3.18,0,13.82.76,18.34,2.29,25.06s4.72,11.68,9.57,14.88S46,93.5,56,93.5s17.47-1.6,22.32-4.79,8.08-8.22,9.69-15,2.43-14.07,2.43-26.44c0-.56,0-1.1,0-1.64Z"/>
    <g>
      <rect class="cls-4" x="5.52" y="21.09" width="33.08" height="34.93"/>
      <g>
        <rect class="cls-5" x="6.28" y="21.81" width="31.6" height="5.75"/>
        <rect class="cls-5" x="6.28" y="28.28" width="31.6" height="5.75"/>
        <rect class="cls-5" x="6.28" y="34.76" width="31.6" height="5.75"/>
        <rect class="cls-5" x="6.28" y="41.23" width="31.6" height="5.75"/>
        <rect class="cls-5" x="6.28" y="47.71" width="31.6" height="5.75"/>
      </g>
    </g>
    <g class="cls-6">
      <g>
        <rect class="cls-5" x="66.62" y="17.96" width="47.71" height="50.38"/>
        <g>
          <rect class="cls-7" x="67.72" y="19" width="45.58" height="8.29"/>
          <rect class="cls-7" x="67.72" y="28.33" width="45.58" height="8.29"/>
          <rect class="cls-7" x="67.72" y="37.67" width="45.58" height="8.29"/>
          <rect class="cls-7" x="67.72" y="47.01" width="45.58" height="8.29"/>
          <rect class="cls-7" x="67.72" y="56.35" width="45.58" height="8.29"/>
        </g>
      </g>
    </g>
    <g>
      <g>
        <g>
          <path class="cls-8" d="M56.33,44.8l-3-13.71a4,4,0,0,1-.09-.84V28.88H49.32v1.37a4,4,0,0,1-.09.84l-3,13.71a6.5,6.5,0,0,0-.15,1.39V54.5a1.56,1.56,0,0,0,1.56,1.56h7.28a1.56,1.56,0,0,0,1.56-1.56V46.19A6.5,6.5,0,0,0,56.33,44.8Z"/>
          <path class="cls-9" d="M49.5,25.76H53a.56.56,0,0,1,.56.56v3.31a.11.11,0,0,1-.11.11H49.05a.11.11,0,0,1-.11-.11V26.32A.56.56,0,0,1,49.5,25.76Z"/>
          <line class="cls-10" x1="50.05" y1="26.68" x2="50.05" y2="28.91"/>
          <line class="cls-10" x1="51.22" y1="26.68" x2="51.22" y2="28.91"/>
          <line class="cls-10" x1="52.42" y1="26.68" x2="52.42" y2="28.91"/>
        </g>
        <g>
          <path class="cls-4" d="M68.42,31.3H60.73a.12.12,0,0,1-.12-.12V27.11a.57.57,0,0,1,.57-.56H68a.56.56,0,0,1,.56.56v4.07A.11.11,0,0,1,68.42,31.3Z"/>
          <g>
            <line class="cls-11" x1="62.3" y1="27.67" x2="62.3" y2="29.95"/>
            <line class="cls-11" x1="63.76" y1="27.67" x2="63.76" y2="29.95"/>
            <line class="cls-11" x1="65.23" y1="27.67" x2="65.23" y2="29.95"/>
            <line class="cls-11" x1="66.7" y1="27.67" x2="66.7" y2="29.95"/>
          </g>
          <path class="cls-12" d="M68.56,34l-.4-.12a1.05,1.05,0,0,1-.74-1V31.3H61.77v1.62a1.05,1.05,0,0,1-.74,1l-.41.12a4.16,4.16,0,0,0-3,4V64.58a2.08,2.08,0,0,0,2.08,2.08h9.71a2.08,2.08,0,0,0,2.08-2.08V38A4.17,4.17,0,0,0,68.56,34Z"/>
        </g>
        <g>
          <path class="cls-9" d="M48.18,38.48H45.51V35.9H41.08v2.58H38.4a1.24,1.24,0,0,0-1.24,1.24V57.51a1.24,1.24,0,0,0,1.24,1.24h9.78a1.23,1.23,0,0,0,1.24-1.24V39.72A1.23,1.23,0,0,0,48.18,38.48Z"/>
          <path class="cls-13" d="M48.55,58.75H38a.87.87,0,0,1-.88-.87V41.1H49.42V57.88A.87.87,0,0,1,48.55,58.75Z"/>
          <rect class="cls-14" x="40.1" y="32.1" width="6.38" height="3.81" rx="0.11"/>
          <rect class="cls-13" x="42.36" y="30.83" width="1.86" height="1.27"/>
          <path class="cls-14" d="M45.77,30.19H39.52a2.19,2.19,0,0,0-1.93,1.16l-.29.54h.82l.26-.43a1.3,1.3,0,0,1,1.12-.63h6.27Z"/>
        </g>
        <path class="cls-15" d="M35.49,46.41V77.28a4.56,4.56,0,0,0,4.56,4.56H72.28a4.56,4.56,0,0,0,4.55-4.56V46.41Z"/>
      </g>
      <path class="cls-16" d="M73.94,62.25l-2.36-7.52V46.41H61.31V67.14a1,1,0,1,0,2,0V58.93h.43v8.21a1,1,0,1,0,2,0V58.93h.43v8.21a1,1,0,1,0,2,0V58.93h.43v8.21a1,1,0,1,0,2,0V58.93h.07L72,62.86a1,1,0,0,0,1.93-.61Z"/>
      <path class="cls-16" d="M47.49,62.25l2.36-7.52V46.41H60.12V67.14a1,1,0,1,1-2,0V58.93h-.43v8.21a1,1,0,1,1-2,0V58.93h-.43v8.21a1,1,0,1,1-2,0V58.93h-.43v8.21a1,1,0,1,1-2,0V58.93h-.06l-1.23,3.93a1,1,0,0,1-1.94-.61Z"/>
    </g>
  </g>
</svg>
