<?xml version="1.0" encoding="UTF-8"?>
<svg id="Layer_1" data-name="Layer 1" xmlns="http://www.w3.org/2000/svg" xmlns:xlink="http://www.w3.org/1999/xlink" viewBox="0 0 96 96">
  <defs>
    <style>
      .cls-1 {
        fill: none;
      }

      .cls-2 {
        clip-path: url(#clippath);
      }

      .cls-3 {
        fill: #f9f8f3;
      }

      .cls-4 {
        fill: #fff;
      }

      .cls-5 {
        fill: #ffc566;
      }

      .cls-6 {
        fill: #ffa81a;
      }

      .cls-7 {
        fill: #fca699;
      }

      .cls-8 {
        fill: #fdd399;
      }

      .cls-9 {
        fill: #ff8a33;
      }

      .cls-10 {
        fill: #fc9788;
      }

      .cls-11 {
        fill: #ff837f;
      }

      .cls-12 {
        fill: #7c9d00;
      }

      .cls-13 {
        fill: #c28b7d;
      }

      .cls-14 {
        fill: #bfd24c;
      }

      .cls-15 {
        fill: #a3bf00;
      }

      .cls-16 {
        fill: #ababab;
      }

      .cls-17 {
        fill: #c9eef7;
      }

      .cls-18 {
        fill: #dfe736;
      }

      .cls-19 {
        fill: #b04e26;
      }

      .cls-20 {
        fill: #c5e5f8;
      }

      .cls-21 {
        fill: #def3f9;
      }

      .cls-22 {
        fill: #b16b5a;
      }

      .cls-23 {
        fill: #96371f;
      }

      .cls-24 {
        fill: #878787;
      }

      .cls-25 {
        fill: #82d8ec;
      }

      .cls-26 {
        fill: #4da298;
      }

      .cls-27 {
        fill: #750000;
        isolation: isolate;
        opacity: .55;
      }
    </style>
    <clipPath id="clippath">
      <path class="cls-1" d="m81.49,47.23c0-12.36-.77-18.34-2.3-25.06s-4.72-11.68-9.57-14.88-12.28-4.79-22.32-4.79-17.48,1.6-22.3,4.79c-4.82,3.19-8.07,8.22-9.69,15s-2.43,12.61-2.43,26.44.77,18.34,2.3,25.06,4.72,11.68,9.57,14.88,12.25,4.83,22.25,4.83,17.48-1.6,22.33-4.79,8.07-8.22,9.69-15,2.47-14.11,2.47-26.48Z"/>
    </clipPath>
  </defs>
  <g>
    <path class="cls-21" d="m81.49,47.23c0-12.36-.77-18.34-2.3-25.06s-4.72-11.68-9.57-14.88-12.28-4.79-22.32-4.79-17.48,1.6-22.3,4.79c-4.82,3.19-8.07,8.22-9.69,15s-2.43,12.61-2.43,26.44.77,18.34,2.3,25.06,4.72,11.68,9.57,14.88,12.25,4.83,22.25,4.83,17.48-1.6,22.33-4.79,8.07-8.22,9.69-15,2.47-14.11,2.47-26.48Z"/>
    <path class="cls-4" d="m40.74,10.71c0,.76-.08,1.24-1.47,1.24s-1.67-.41-1.67-1.46c0-2.13-2.5-3-4.48-3.31-1.15-.21-.53-.28,0-.28h1.12c1.95.05,3.75,1.09,4.76,2.76.12.27.23.3.31.05.57-1.82,3.07-3,5.24-3h1.15c1.14,0,.67.19,0,.3-2.07.35-5,1-5,3.73"/>
    <path class="cls-4" d="m56.83,19.92c0,.69-.08,1.12-1.34,1.12s-1.49-.37-1.49-1.32c0-1.93-2.27-2.68-4.07-3-1-.19-.48-.26,0-.26h1c1.79.04,3.43,1,4.35,2.54.11.24.21.27.28,0,.52-1.65,2.79-2.75,4.75-2.75h1c1,0,.61.17,0,.27-1.88.32-4.55.91-4.55,3.39"/>
    <path class="cls-8" d="m24.72,88.71c4.85,3.19,12.28,4.79,22.28,4.79s17.44-1.6,22.33-4.79c4.85-3.2,8.08-8.2,9.69-15,.23-1,.45-2,.65-3H14.47c.2,1,.43,2,.68,3.14,1.53,6.71,4.72,11.66,9.57,14.86Z"/>
    <g class="cls-2">
      <g>
        <path class="cls-3" d="m30.68,19.86c1.9,1.21,5.35,3.29,5.35,3.29,9.34-5.54,10.15-.74,20.23,3.63,12.79,5.53,18.32,2.93,25.67-.18l.14,22.13-70.93-.17.18-19.36s3.8-2.42,12.61-7.61c2.46-1.45,5.39-2.59,6.75-1.73Z"/>
        <path class="cls-17" d="m36,23.15s-6.63,4.17-9.16,5.35c5.6-1.33,15.73-7.08,27.32-1.38,13,6.39,19.18,10.55,29.9,2.42l-2,21.38-70.06,1.45s.64-20.19,1-20.37c13.7-7.47,18-10.93,23-8.85Z"/>
        <polygon class="cls-25" points="81.84 50.45 12.35 50.45 13.8 70.74 80.53 70.74 81.84 50.45"/>
      </g>
    </g>
  </g>
  <path class="cls-20" d="m62.29,8.19c-4.39,0-5.49,1.28-5.49,4.47h35.44c0-2.44-.84-3.42-4.2-3.42h-8.72c0-1.71-.59-2.4-2.95-2.4h-1.78c0-3.09-1.07-4.33-5.32-4.33-5.58,0-6.98,1.62-6.98,5.68Z"/>
  <g>
    <g>
      <path class="cls-14" d="m32.77,44.43c.34.16.87.45,1.08.64.22.18.32.41.32.67,0,.26-.14.61-.4,1.03-3.76-1.77-3.92-1.86-4.89-2.32.01,0,1.56-1.14,3.89-.02Z"/>
      <path class="cls-12" d="m32.21,47.77c.29.06.56,0,.81-.15.24-.15.5-.43.76-.86-.97-.45-1.13-.55-4.89-2.32-.26.42.12,1.91,2.13,2.88.5.25.9.38,1.19.44"/>
    </g>
    <path class="cls-15" d="m33.22,43.62l-2.71-5.59-.53.27c.49,1.01,2.73,5.54,5.84,11.38l.14-1.16c-1.2-2.1-1.83-3.23-2.74-4.9Z"/>
    <path class="cls-5" d="m29.05,35.8l3.59,2.31c1.07.69,1.56,2,1.21,3.22v.03c-.47,1.52-2.08,2.38-3.6,1.92-1.23-.37-2.06-1.51-2.04-2.79l.06-4.27c0-.28.23-.5.51-.5.09,0,.19.03.27.08Z"/>
    <path class="cls-7" d="m29.05,35.8l3.59,2.31c1.07.69,1.56,2,1.21,3.22v.03c-.28.9-.49,1.32-1.31,1.61-.83-1.78-3.11-5.43-3.94-7.22.15-.06.32-.04.46.05Z"/>
    <g>
      <path class="cls-14" d="m36.85,43.61c-.02.36-.07.92-.15,1.18-.08.27-.24.48-.47.62s-.58.24-1.04.27c.14-3.86.16-4.04.2-5.03,0,0,1.58.55,1.46,2.97Z"/>
      <path class="cls-12" d="m33.73,45.01c.06.26.21.44.42.54s.57.15,1.03.11c.03-1,.05-1.17.2-5.03-.47.03-1.62,1.15-1.72,3.24-.03.51,0,.88.06,1.14"/>
    </g>
  </g>
  <g>
    <path class="cls-10" d="m37.76,39.21c.24-2.65,5.25-3.37,7.29-3.19,2.55.39,2.99,4.74,3.06,6.72-.22,2.71-5.23,3.44-7.29,3.19-2.55-.39-2.97-4.68-3.06-6.72"/>
    <path class="cls-26" d="m41.8,36.32l-4.21-2.06c1.6-2.24,5.35-.14,4.21,2.06"/>
  </g>
  <g>
    <path class="cls-26" d="m56.74,36.23l-3.28,2.34c-1.06-2.12,2.05-4.13,3.28-2.34"/>
    <ellipse class="cls-18" cx="50.99" cy="41.85" rx="4.24" ry="3.69" transform="translate(-12.66 59.18) rotate(-54.61)"/>
  </g>
  <g>
    <path class="cls-11" d="m57.36,39.18c1.1-.14,2.16.47,2.6,1.49h0c.09.19-.1.47-.43.77-.34.31-2.23,1.54-2.63,2.48-.47,1.65-1.74,2.96-3.37,3.47-.93.36-1.95.39-2.89.09-.56-.2-1.01-.62-1.24-1.17l-.2-.45c-.22-.49-.25-1.05-.08-1.57.32-.84.9-1.54,1.66-2.01,1.56-1.07,4.4-2.79,6.58-3.1Z"/>
    <path class="cls-27" d="m50.31,43.46s-2.47,2.36.88,3.01c1.22.19,2.45-.13,3.43-.88.81-.89,1.46-1.91,1.95-3.01,0,0-1.31.51-6.25.88Z"/>
    <path class="cls-27" d="m50.52,43.2s3.7-.43,6.27-.98l2.23-1.9c.13-.11.15-.3.04-.43,0,0,0,0,0,0-.53-.34-1.18-.46-1.8-.34-1.97.22-4.79,2.22-6.74,3.66Z"/>
  </g>
  <g>
    <path class="cls-6" d="m43.61,47.15h0c-1.45-.98-1.83-2.94-.86-4.39.06-.09.12-.18.19-.26,1.17-1.42,2.1-.52,2.98-1.71.6-1.03,1.93-1.38,2.97-.78.06.03.11.07.16.11h0c.92.78,1.03,2.14.26,3.06-.04.05-.09.1-.13.14-.93,1.15.18,1.82-.91,3.31-1.02,1.42-3,1.74-4.42.72-.09-.06-.17-.13-.25-.2Z"/>
    <path class="cls-19" d="m50.12,38.47l.16.12c.07.05.08.15.03.22h0s-1.54,1.99-1.54,1.99h0l-.41-.32h0l1.54-1.99c.05-.07.15-.08.22-.03h0Z"/>
  </g>
  <g>
    <path class="cls-16" d="m60.18,42.57c.31-.19,2.12-1.18,2.12-1.18l2.45.69-1.48.95"/>
    <polyline class="cls-16" points="61.75 46.3 63.94 46.92 63.02 47.58 61.04 46.61"/>
    <path class="cls-24" d="m69.18,43.29c1.79-.81,2.97-1.95,4.83-2.28,0,0-.7,2.24-2.22,2.6,1.16.68,2.47,1.83,2.16,2.61-1.63-.47-3.2-1.09-4.7-1.87-5.93.77-8.85,5.03-14.25,1.6-.84-.54-1.23-.83-.2-1.54,5.46-3.76,7.51-1.21,14.39-1.12Z"/>
    <path d="m58,45.65c-.4.05-.77-.23-.83-.64-.05-.4.23-.77.64-.83s.77.23.83.64c0,0,0,0,0,0,.05.4-.23.77-.64.83Z"/>
  </g>
  <path class="cls-9" d="m42.1,42.52c.1-.08.1-.91.1-.91l.58.08s.04.45.08,1.05c.04.59,1.72,1.82-1.55,4.27-2.59,1.94-4.25,1.21-5.23.49l.05-.45c.56-.31,1.4.02,3.1-1.08h-.02c-3.2.44-4.3-1.01-4.8-2.11l.26-.37c.66,0,1.24.73,3.39.56-2.53-1.07-2.7-2.77-2.58-3.94l.38-.21c.56.32.65,1.35,2.87,2.22.28.11,1.08.42,1.32.52,1.32.52,1.77.09,2.05-.12Z"/>
  <g>
    <path class="cls-23" d="m66.07,46.69c0-.79-.69-1.13-1.61-1.13h-31.86c-1,0-1.33.37-1.33,1.35v34.46h34.8v-34.68Z"/>
    <g>
      <path class="cls-13" d="m66.07,74c0-.78-.69-1.12-1.61-1.12h-31.86c-.87,0-1.33.37-1.33,1.35v7.27h34.8v-7.5Z"/>
      <path class="cls-22" d="m64.46,72.84c.92,0,1.61.34,1.61,1.12v7.5h-5.18v-7.46c0-.78-.69-1.12-1.62-1.12l5.19-.04Z"/>
    </g>
    <path class="cls-23" d="m50.8,75.25c-.05.6-.57,1.05-1.17,1h-5.55c-.6.05-1.12-.4-1.17-1h0c.05-.6.57-1.05,1.17-1h5.53c.6-.05,1.12.4,1.17,1h.02Z"/>
    <g>
      <path class="cls-13" d="m66.07,64.87c0-.78-.69-1.12-1.61-1.12h-31.86c-1,0-1.33.36-1.33,1.34v7.28h34.8v-7.5Z"/>
      <path class="cls-22" d="m64.46,63.75c.92,0,1.61.34,1.61,1.12v7.5h-5.18v-7.5c0-.78-.69-1.12-1.62-1.12h5.19Z"/>
    </g>
    <path class="cls-23" d="m50.8,66.16c-.05.6-.57,1.05-1.17,1h-5.55c-.6.05-1.12-.4-1.17-1h0c.05-.6.57-1.05,1.17-1h5.53c.6-.05,1.12.4,1.17,1h.02Z"/>
    <g>
      <path class="cls-13" d="m66.07,55.78c0-.78-.69-1.13-1.61-1.13h-31.86c-1,0-1.33.37-1.33,1.35v7.27h34.8v-7.49Z"/>
      <path class="cls-22" d="m64.46,54.65c.92,0,1.61.35,1.61,1.13v7.49h-5.18v-7.49c0-.78-.69-1.13-1.62-1.13h5.19Z"/>
    </g>
    <path class="cls-23" d="m50.8,57.06c-.05.6-.57,1.04-1.17,1h-5.55c-.6.05-1.12-.4-1.17-1h0c.05-.6.57-1.05,1.17-1h5.53c.6-.04,1.12.4,1.17,1h.02Z"/>
    <g>
      <path class="cls-13" d="m66.07,46.69c0-.79-.69-1.13-1.61-1.13h-31.86c-1,0-1.33.37-1.33,1.35v7.27h34.8v-7.49Z"/>
      <path class="cls-22" d="m64.46,45.56c.92,0,1.61.34,1.61,1.13v7.49h-5.18v-7.49c0-.79-.69-1.13-1.62-1.13h5.19Z"/>
    </g>
    <path class="cls-23" d="m50.8,48c-.05.6-.57,1.05-1.17,1h-5.55c-.6.05-1.12-.4-1.17-1h0c.05-.6.57-1.05,1.17-1h5.53c.6-.06,1.13.38,1.19.98,0,0,0,.01,0,.02Z"/>
  </g>
</svg>