<svg id="Layer_1" data-name="Layer 1" xmlns="http://www.w3.org/2000/svg" xmlns:xlink="http://www.w3.org/1999/xlink" viewBox="0 0 96 96">
  <defs>
    <style>
      .cls-1 {
        fill: none;
      }

      .cls-2 {
        fill: #def3f9;
      }

      .cls-3 {
        fill: #cfcfcf;
      }

      .cls-4 {
        clip-path: url(#clip-path);
      }

      .cls-5 {
        fill: #cce2ee;
      }

      .cls-6 {
        fill: #f8f7f7;
      }

      .cls-7 {
        fill: #ededed;
      }

      .cls-8 {
        fill: #ab6044;
      }

      .cls-11, .cls-9 {
        fill: #8c473d;
      }

      .cls-10 {
        fill: #863e33;
      }

      .cls-11 {
        stroke: #e0c3b9;
        stroke-miterlimit: 10;
        stroke-width: 0.87px;
      }

      .cls-12 {
        fill: #c08872;
      }
    </style>
    <clipPath id="clip-path">
      <path class="cls-1" d="M82.32,47.23c0-12.36-.77-18.34-2.3-25.06S75.3,10.49,70.45,7.29,58.17,2.5,48.13,2.5,30.65,4.1,25.8,7.29s-8.07,8.22-9.69,15-2.43,12.61-2.43,26.44.77,18.34,2.3,25.06,4.72,11.68,9.57,14.88S37.83,93.5,47.87,93.5s17.48-1.6,22.33-4.79,8.07-8.22,9.69-15S82.32,59.6,82.32,47.23Z"/>
    </clipPath>
  </defs>
  <g>
    <path class="cls-2" d="M82.32,47.23c0-12.36-.77-18.34-2.3-25.06S75.3,10.49,70.45,7.29,58.17,2.5,48.13,2.5,30.65,4.1,25.8,7.29s-8.07,8.22-9.69,15-2.43,12.61-2.43,26.44.77,18.34,2.3,25.06,4.72,11.68,9.57,14.88S37.83,93.5,47.87,93.5s17.48-1.6,22.33-4.79,8.07-8.22,9.69-15S82.32,59.6,82.32,47.23Z"/>
    <path class="cls-3" d="M13.68,47.23v1.54c0,13.82.77,18.34,2.3,25.06s4.72,11.68,9.57,14.88S37.83,93.5,47.87,93.5s17.48-1.6,22.33-4.79,8.07-8.22,9.69-15,2.43-14.07,2.43-26.44Z"/>
    <g class="cls-4">
      <g>
        <rect class="cls-5" x="39.09" y="11.95" width="32.17" height="33.97"/>
        <rect class="cls-5" x="71.44" y="11.95" width="32.17" height="33.97"/>
        <g>
          <rect class="cls-6" x="27.89" y="20.41" width="42" height="44.34"/>
          <g>
            <rect class="cls-7" x="28.85" y="21.32" width="40.12" height="7.29"/>
            <rect class="cls-7" x="28.85" y="29.54" width="40.12" height="7.29"/>
            <rect class="cls-7" x="28.85" y="37.76" width="40.12" height="7.29"/>
            <rect class="cls-7" x="28.85" y="45.97" width="40.12" height="7.29"/>
            <rect class="cls-7" x="28.85" y="54.19" width="40.12" height="7.29"/>
          </g>
        </g>
        <g>
          <rect class="cls-6" x="70.12" y="20.41" width="42" height="44.34"/>
          <g>
            <rect class="cls-7" x="71.08" y="21.32" width="40.12" height="7.29"/>
            <rect class="cls-7" x="71.08" y="29.54" width="40.12" height="7.29"/>
            <rect class="cls-7" x="71.08" y="37.76" width="40.12" height="7.29"/>
            <rect class="cls-7" x="71.08" y="45.97" width="40.12" height="7.29"/>
            <rect class="cls-7" x="71.08" y="54.19" width="40.12" height="7.29"/>
          </g>
        </g>
      </g>
    </g>
    <g>
      <rect class="cls-8" x="30.32" y="39.94" width="35.63" height="40.62" rx="1.09"/>
      <path class="cls-9" d="M65.94,49.88V41a1.09,1.09,0,0,0-1.09-1.09H31.41A1.09,1.09,0,0,0,30.32,41v8.85Z"/>
      <path class="cls-10" d="M39.09,67.05a8.91,8.91,0,0,0,17.82,0V62.61H39.22Z"/>
      <circle class="cls-11" cx="48.13" cy="62.61" r="8.91"/>
      <rect class="cls-12" x="28.97" y="38.64" width="38.06" height="9.06" rx="0.44"/>
      <rect class="cls-10" x="31.76" y="41.04" width="8.36" height="4.07" rx="0.22"/>
      <path class="cls-9" d="M60.53,44.61a1.84,1.84,0,1,0,3.67,0V43.25H60.53Z"/>
      <circle class="cls-3" cx="62.36" cy="43.25" r="1.84"/>
      <circle class="cls-3" cx="54.73" cy="43.25" r="0.55"/>
      <circle class="cls-3" cx="56.59" cy="43.25" r="0.55"/>
      <circle class="cls-3" cx="58.45" cy="43.25" r="0.55"/>
    </g>
  </g>
</svg>
