<svg id="Layer_1" data-name="Layer 1" xmlns="http://www.w3.org/2000/svg" viewBox="0 0 96 96">
  <defs>
    <style>
      .cls-1 {
        fill: #cce2ee;
      }

      .cls-2 {
        fill: #e7e7e7;
      }

      .cls-3 {
        fill: #8c473d;
      }

      .cls-4 {
        fill: #f8f7f7;
      }

      .cls-5 {
        fill: #ec6450;
      }

      .cls-6 {
        fill: #878787;
      }

      .cls-7 {
        fill: none;
        stroke: #a9756d;
        stroke-miterlimit: 10;
        stroke-width: 0.5px;
      }

      .cls-8 {
        fill: #f29140;
      }
    </style>
  </defs>
  <g>
    <path class="cls-1" d="M81.55,48.76c0-12.09-.74-17.93-2.24-24.51S74.69,12.83,70,9.71,57.94,5,48.12,5,31,6.59,26.3,9.71s-7.9,8-9.48,14.7-2.37,12.33-2.37,25.85.74,17.93,2.24,24.51,4.62,11.42,9.36,14.54S38.06,94,47.88,94,65,92.43,69.7,89.31s7.9-8,9.48-14.7S81.55,60.85,81.55,48.76Z"/>
    <path class="cls-2" d="M14.6,59.34a74.53,74.53,0,0,0,2.09,15.43q2.25,9.86,9.36,14.54T47.88,94Q62.6,94,69.7,89.31t9.48-14.7a84,84,0,0,0,2.11-15.27Z"/>
    <g>
      <rect class="cls-3" x="24.38" y="24.48" width="16.64" height="16.64" rx="0.23"/>
      <rect class="cls-4" x="26.24" y="26.34" width="12.92" height="12.92"/>
      <rect class="cls-3" x="34.17" y="13.1" width="9.99" height="9.99" rx="0.23"/>
      <rect class="cls-4" x="35.91" y="14.84" width="6.51" height="6.51"/>
    </g>
    <g>
      <path class="cls-5" d="M61.53,28.1a.57.57,0,0,1-.57-.61,9.89,9.89,0,0,1,19.74,0,.57.57,0,0,1-.57.61Z"/>
      <rect class="cls-6" x="70.65" y="2" width="0.46" height="16.21"/>
    </g>
    <g>
      <rect class="cls-6" x="65.06" y="2" width="0.46" height="9.08"/>
      <path class="cls-5" d="M58.76,17.18a.41.41,0,0,1-.4-.43,6.89,6.89,0,0,1,13.76,0,.41.41,0,0,1-.4.43Z"/>
    </g>
    <g>
      <g>
        <g>
          <line class="cls-7" x1="51.17" y1="22.99" x2="51.17" y2="47.16"/>
          <line class="cls-7" x1="48.31" y1="33.18" x2="48.31" y2="56.22"/>
          <line class="cls-7" x1="54.12" y1="27.26" x2="54.12" y2="50.3"/>
        </g>
        <g>
          <path class="cls-8" d="M46.39,33.18c0-1.9.55-2.37,1.93-2.37s1.91.46,1.91,2.37-.56,2.37-1.91,2.37S46.39,35.08,46.39,33.18Z"/>
          <path class="cls-8" d="M52.2,27.26c0-1.89.55-2.37,1.93-2.37s1.92.47,1.92,2.37-.57,2.37-1.92,2.37S52.2,29.17,52.2,27.26Z"/>
          <path class="cls-8" d="M49.25,21.64c0-1.9.55-2.37,1.93-2.37s1.91.46,1.91,2.37S52.53,24,51.18,24,49.25,23.54,49.25,21.64Z"/>
          <path class="cls-8" d="M52.2,38.38c0-1.9.55-2.37,1.93-2.37s1.92.47,1.92,2.37-.57,2.37-1.92,2.37S52.2,40.29,52.2,38.38Z"/>
        </g>
      </g>
      <path class="cls-5" d="M55.27,43.93H47.62c-3.55,3.66-6,12.22-6,22.21,0,7.4,1.37,14,3.53,18.45a1,1,0,0,0,.91.57H56.87a1,1,0,0,0,.91-.57c2.15-4.42,3.52-11,3.52-18.45C61.3,56.15,58.82,47.59,55.27,43.93Z"/>
      <path class="cls-5" d="M55.73,44.07H48.08c-3.55,3.65-6,12.22-6,22.21,0,7.4,1.37,14,3.52,18.45a1.05,1.05,0,0,0,.92.57H57.33a1,1,0,0,0,.91-.57c2.15-4.42,3.52-11,3.52-18.45C61.76,56.29,59.27,47.72,55.73,44.07Z"/>
    </g>
  </g>
</svg>
