<svg width="2347" height="605" viewBox="0 0 2347 605" fill="none" xmlns="http://www.w3.org/2000/svg">
<g filter="url(#filter0_i_6_3)">
<path d="M302.5 592C462.386 592 592 462.386 592 302.5C592 142.614 462.386 13 302.5 13C142.614 13 13 142.614 13 302.5C13 462.386 142.614 592 302.5 592Z" fill="white" stroke="#03091C" stroke-width="26" stroke-miterlimit="10"/>
<path d="M107.024 473.212L104.701 470.718L131.064 459.633L133.351 462.088L120.426 487.6L118.103 485.106L129.171 463.832L129.028 463.679L107.024 473.212ZM115.555 466.985L124.919 477.037L122.809 479.003L113.445 468.951L115.555 466.985Z" fill="#03091C"/>
<path d="M120.079 493.575L138.394 472.762L140.641 474.74L138.525 477.144L138.801 477.387C139.203 477.274 139.734 477.148 140.395 477.006C141.068 476.864 141.832 476.883 142.687 477.064C143.554 477.245 144.48 477.768 145.466 478.636C146.74 479.757 147.583 481.064 147.995 482.557C148.406 484.05 148.37 485.621 147.886 487.27C147.403 488.92 146.461 490.539 145.062 492.129C143.651 493.732 142.156 494.882 140.576 495.578C139.002 496.267 137.448 496.509 135.916 496.303C134.39 496.09 132.996 495.429 131.734 494.319C130.762 493.464 130.125 492.617 129.824 491.781C129.528 490.938 129.405 490.171 129.454 489.479C129.508 488.782 129.572 488.219 129.644 487.793L129.446 487.62L122.405 495.622L120.079 493.575ZM134.02 482.343C133.015 483.486 132.295 484.641 131.861 485.81C131.433 486.972 131.324 488.083 131.534 489.142C131.75 490.195 132.324 491.132 133.257 491.953C134.23 492.808 135.266 493.266 136.368 493.326C137.481 493.385 138.587 493.122 139.684 492.537C140.794 491.952 141.823 491.121 142.771 490.043C143.708 488.979 144.388 487.875 144.811 486.732C145.246 485.588 145.355 484.477 145.137 483.4C144.932 482.322 144.337 481.349 143.351 480.482C142.405 479.649 141.399 479.19 140.334 479.103C139.273 479.009 138.203 479.245 137.123 479.81C136.049 480.368 135.015 481.213 134.02 482.343Z" fill="#03091C"/>
<path d="M139.93 504.506L152.391 488.63L154.748 490.48L152.865 492.878L153.031 493.008C153.937 492.449 154.961 492.223 156.103 492.329C157.245 492.435 158.291 492.861 159.242 493.607C159.421 493.748 159.642 493.927 159.906 494.145C160.169 494.363 160.364 494.532 160.491 494.654L158.544 497.135C158.477 497.049 158.312 496.87 158.049 496.596C157.797 496.32 157.509 496.055 157.185 495.801C156.414 495.196 155.598 494.817 154.737 494.665C153.889 494.511 153.067 494.579 152.272 494.868C151.49 495.156 150.817 495.658 150.255 496.374L142.369 506.42L139.93 504.506Z" fill="#03091C"/>
<path d="M156.163 516.346C154.568 515.237 153.438 513.929 152.771 512.421C152.116 510.911 151.918 509.303 152.176 507.598C152.447 505.89 153.172 504.188 154.35 502.493C155.529 500.798 156.876 499.519 158.393 498.655C159.921 497.789 161.494 497.381 163.112 497.429C164.742 497.476 166.304 498.018 167.798 499.056C168.659 499.656 169.411 500.391 170.051 501.262C170.692 502.134 171.133 503.132 171.373 504.258C171.618 505.377 171.578 506.606 171.254 507.947C170.929 509.287 170.23 510.73 169.157 512.274L168.408 513.351L155.651 504.484L157.179 502.286L167.35 509.356C167.999 508.422 168.391 507.459 168.527 506.467C168.67 505.48 168.548 504.537 168.16 503.639C167.779 502.746 167.129 501.98 166.21 501.341C165.197 500.637 164.146 500.279 163.057 500.267C161.98 500.254 160.966 500.508 160.017 501.031C159.068 501.554 158.276 502.271 157.642 503.183L156.623 504.648C155.755 505.898 155.234 507.108 155.061 508.276C154.9 509.443 155.05 510.522 155.511 511.514C155.977 512.498 156.724 513.347 157.751 514.061C158.419 514.526 159.087 514.852 159.756 515.04C160.436 515.225 161.106 515.265 161.766 515.159C162.431 515.045 163.071 514.776 163.686 514.352L165.663 516.749C164.825 517.402 163.881 517.833 162.831 518.04C161.786 518.241 160.693 518.205 159.55 517.933C158.413 517.654 157.284 517.124 156.163 516.346Z" fill="#03091C"/>
<path d="M173.306 513.233L167.115 523.673L164.448 522.092L174.741 504.736L177.317 506.264L175.709 508.975L175.935 509.109C176.864 508.469 177.902 508.128 179.048 508.084C180.198 508.033 181.429 508.396 182.739 509.174C183.914 509.87 184.8 510.721 185.395 511.726C185.995 512.723 186.252 513.853 186.165 515.115C186.083 516.37 185.604 517.735 184.729 519.212L178.188 530.24L175.522 528.659L181.955 517.811C182.763 516.448 183.039 515.176 182.782 513.995C182.53 512.807 181.786 511.846 180.55 511.113C179.699 510.609 178.829 510.342 177.939 510.314C177.058 510.29 176.215 510.518 175.411 510.998C174.606 511.478 173.905 512.223 173.306 513.233Z" fill="#03091C"/>
<path d="M187.715 535.678C186.218 534.921 185.088 533.874 184.325 532.539C183.565 531.195 183.212 529.666 183.267 527.951C183.325 526.229 183.835 524.416 184.797 522.514C185.751 520.628 186.902 519.154 188.251 518.093C189.6 517.033 191.042 516.416 192.578 516.243C194.115 516.071 195.639 516.367 197.151 517.131C198.321 517.723 199.146 518.385 199.627 519.117C200.12 519.846 200.422 520.547 200.532 521.219C200.654 521.888 200.737 522.429 200.782 522.844L201.016 522.962L205.486 514.121L208.246 515.517L196.137 539.466L193.471 538.118L194.866 535.358L194.539 535.192C194.17 535.417 193.673 535.685 193.047 535.994C192.424 536.296 191.667 536.467 190.776 536.506C189.889 536.537 188.869 536.261 187.715 535.678ZM189.343 533.388C190.45 533.947 191.531 534.132 192.587 533.941C193.647 533.743 194.635 533.23 195.553 532.402C196.475 531.566 197.279 530.47 197.965 529.113C198.643 527.772 199.041 526.5 199.16 525.298C199.282 524.087 199.104 523.008 198.624 522.06C198.147 521.105 197.348 520.344 196.225 519.776C195.056 519.185 193.93 518.992 192.846 519.198C191.775 519.4 190.786 519.914 189.88 520.738C188.986 521.558 188.219 522.6 187.581 523.863C186.934 525.141 186.542 526.401 186.403 527.643C186.277 528.881 186.444 530.003 186.904 531.009C187.376 532.011 188.189 532.804 189.343 533.388Z" fill="#03091C"/>
<path d="M206.235 543.769C204.437 543.027 203.051 541.99 202.075 540.658C201.111 539.321 200.573 537.791 200.461 536.067C200.36 534.338 200.704 532.518 201.494 530.608C202.283 528.697 203.327 527.157 204.625 525.988C205.935 524.813 207.386 524.077 208.979 523.778C210.583 523.474 212.227 523.67 213.911 524.365C214.883 524.767 215.775 525.325 216.588 526.04C217.402 526.755 218.047 527.638 218.523 528.688C219.002 529.729 219.227 530.94 219.196 532.321C219.166 533.702 218.791 535.262 218.072 537.003L217.571 538.217L203.193 532.277L204.216 529.799L215.68 534.536C216.115 533.483 216.292 532.457 216.212 531.458C216.141 530.461 215.819 529.565 215.247 528.77C214.684 527.978 213.884 527.368 212.847 526.94C211.706 526.468 210.601 526.343 209.533 526.565C208.477 526.783 207.54 527.249 206.723 527.964C205.907 528.678 205.286 529.55 204.861 530.578L204.179 532.229C203.597 533.638 203.346 534.932 203.427 536.113C203.52 537.288 203.898 538.311 204.561 539.183C205.228 540.046 206.141 540.717 207.298 541.195C208.051 541.506 208.775 541.682 209.469 541.722C210.175 541.758 210.839 541.653 211.461 541.408C212.087 541.155 212.655 540.755 213.166 540.207L215.613 542.129C214.934 542.947 214.103 543.571 213.12 543.999C212.141 544.419 211.064 544.618 209.888 544.597C208.715 544.567 207.498 544.291 206.235 543.769Z" fill="#03091C"/>
<path d="M222.305 536.515L218.475 548.035L215.532 547.057L221.9 527.906L224.742 528.851L223.747 531.843L223.997 531.926C224.769 531.103 225.71 530.548 226.821 530.262C227.934 529.967 229.214 530.061 230.66 530.541C231.957 530.973 233.003 531.616 233.799 532.471C234.597 533.318 235.088 534.367 235.272 535.619C235.459 536.863 235.281 538.299 234.74 539.928L230.694 552.097L227.751 551.119L231.731 539.15C232.231 537.645 232.23 536.343 231.728 535.244C231.228 534.136 230.297 533.356 228.934 532.903C227.994 532.591 227.087 532.515 226.212 532.676C225.345 532.841 224.57 533.243 223.886 533.883C223.202 534.524 222.675 535.401 222.305 536.515Z" fill="#03091C"/>
<path d="M240.278 554.684C238.646 554.281 237.308 553.512 236.263 552.379C235.22 551.237 234.533 549.823 234.202 548.136C233.873 546.441 233.965 544.556 234.478 542.483C234.987 540.427 235.781 538.73 236.86 537.392C237.94 536.054 239.21 535.129 240.672 534.615C242.133 534.102 243.688 534.05 245.336 534.458C246.611 534.773 247.565 535.235 248.199 535.842C248.844 536.444 249.295 537.06 249.554 537.692C249.823 538.318 250.026 538.828 250.163 539.222L250.417 539.286L252.801 529.65L255.809 530.395L249.351 556.496L246.445 555.777L247.189 552.77L246.833 552.681C246.523 552.983 246.098 553.356 245.555 553.799C245.015 554.233 244.314 554.569 243.453 554.807C242.594 555.036 241.535 554.995 240.278 554.684ZM241.354 552.083C242.561 552.382 243.658 552.32 244.646 551.897C245.637 551.466 246.487 550.743 247.198 549.728C247.911 548.706 248.45 547.455 248.816 545.977C249.178 544.515 249.282 543.184 249.128 541.983C248.976 540.773 248.56 539.759 247.879 538.941C247.199 538.115 246.248 537.551 245.025 537.248C243.75 536.933 242.607 536.997 241.596 537.441C240.595 537.879 239.744 538.601 239.044 539.609C238.354 540.611 237.839 541.8 237.498 543.176C237.154 544.57 237.053 545.888 237.196 547.132C237.35 548.369 237.764 549.428 238.439 550.307C239.125 551.18 240.097 551.772 241.354 552.083Z" fill="#03091C"/>
<path d="M259.835 558.704C258.039 558.394 256.538 557.695 255.33 556.607C254.131 555.52 253.283 554.143 252.789 552.476C252.303 550.81 252.237 548.95 252.591 546.895C252.948 544.824 253.635 543.08 254.652 541.664C255.678 540.25 256.938 539.232 258.432 538.609C259.935 537.988 261.584 537.832 263.379 538.142C265.175 538.451 266.672 539.149 267.871 540.236C269.079 541.324 269.926 542.706 270.41 544.38C270.904 546.056 270.972 547.93 270.615 550.002C270.26 552.056 269.571 553.787 268.547 555.192C267.531 556.599 266.272 557.613 264.769 558.234C263.275 558.857 261.63 559.013 259.835 558.704ZM260.308 555.959C261.672 556.194 262.854 556.038 263.855 555.49C264.856 554.943 265.667 554.136 266.286 553.069C266.905 552.003 267.33 550.805 267.559 549.475C267.788 548.146 267.79 546.871 267.565 545.65C267.34 544.429 266.848 543.388 266.09 542.529C265.331 541.669 264.27 541.122 262.906 540.887C261.542 540.652 260.359 540.812 259.357 541.368C258.354 541.924 257.542 542.74 256.921 543.815C256.301 544.89 255.876 546.093 255.646 547.422C255.417 548.751 255.416 550.022 255.643 551.235C255.869 552.447 256.362 553.479 257.122 554.33C257.882 555.18 258.944 555.724 260.308 555.959Z" fill="#03091C"/>
<path d="M288.125 561.8C286.446 561.7 284.989 561.189 283.754 560.264C282.519 559.331 281.585 558.065 280.951 556.466C280.318 554.857 280.065 552.986 280.191 550.853C280.317 548.737 280.788 546.922 281.606 545.409C282.424 543.895 283.506 542.753 284.85 541.981C286.194 541.21 287.715 540.874 289.411 540.975C290.723 541.052 291.746 541.332 292.481 541.814C293.225 542.288 293.782 542.813 294.151 543.388C294.53 543.954 294.823 544.419 295.03 544.782L295.292 544.798L295.879 534.882L298.975 535.065L297.383 561.927L294.393 561.75L294.576 558.655L294.209 558.633C293.96 558.987 293.609 559.431 293.156 559.966C292.704 560.492 292.076 560.95 291.271 561.341C290.468 561.724 289.419 561.877 288.125 561.8ZM288.709 559.044C289.951 559.118 291.019 558.856 291.915 558.26C292.81 557.655 293.515 556.789 294.03 555.661C294.545 554.524 294.847 553.195 294.937 551.674C295.026 550.17 294.886 548.841 294.515 547.687C294.145 546.524 293.551 545.603 292.731 544.922C291.912 544.233 290.873 543.851 289.614 543.777C288.302 543.699 287.189 543.971 286.275 544.593C285.37 545.206 284.665 546.072 284.16 547.192C283.664 548.303 283.374 549.567 283.29 550.984C283.205 552.418 283.346 553.734 283.714 554.931C284.091 556.121 284.692 557.086 285.517 557.828C286.351 558.562 287.415 558.968 288.709 559.044Z" fill="#03091C"/>
<path d="M308.086 562.131C306.264 562.161 304.659 561.753 303.27 560.909C301.889 560.064 300.801 558.868 300.005 557.322C299.218 555.775 298.807 553.959 298.774 551.875C298.739 549.773 299.091 547.932 299.827 546.352C300.572 544.772 301.621 543.537 302.973 542.648C304.334 541.758 305.926 541.299 307.747 541.269C309.569 541.24 311.17 541.647 312.551 542.492C313.94 543.337 315.028 544.537 315.815 546.092C316.612 547.647 317.027 549.476 317.061 551.578C317.095 553.663 316.739 555.491 315.993 557.062C315.257 558.633 314.208 559.864 312.847 560.753C311.495 561.642 309.908 562.102 308.086 562.131ZM308.041 559.346C309.425 559.324 310.558 558.951 311.439 558.227C312.321 557.503 312.967 556.559 313.378 555.396C313.788 554.233 313.982 552.977 313.96 551.628C313.939 550.28 313.704 549.026 313.255 547.868C312.807 546.711 312.131 545.78 311.226 545.076C310.321 544.372 309.176 544.032 307.793 544.054C306.409 544.077 305.276 544.454 304.394 545.187C303.513 545.92 302.867 546.872 302.456 548.044C302.046 549.216 301.852 550.476 301.874 551.825C301.896 553.173 302.131 554.422 302.579 555.572C303.027 556.721 303.703 557.643 304.608 558.338C305.513 559.033 306.657 559.369 308.041 559.346Z" fill="#03091C"/>
<path d="M329.292 560.488L325.822 533.804L341.822 531.723L342.195 534.589L329.426 536.25L330.599 545.266L342.169 543.762L342.542 546.628L330.971 548.133L332.524 560.068L329.292 560.488Z" fill="#03091C"/>
<path d="M360.838 546.783L358.372 535.11L361.406 534.469L365.578 554.215L362.544 554.856L361.838 551.513L361.632 551.557C361.381 552.657 360.842 553.662 360.013 554.571C359.183 555.472 358.022 556.08 356.531 556.395C355.297 556.656 354.143 556.617 353.069 556.28C351.993 555.935 351.065 555.271 350.285 554.29C349.502 553.3 348.934 551.966 348.579 550.286L345.928 537.739L348.962 537.098L351.569 549.439C351.874 550.879 352.519 551.942 353.506 552.629C354.501 553.314 355.629 553.524 356.888 553.257C357.643 553.098 358.369 552.743 359.067 552.193C359.774 551.64 360.309 550.91 360.672 550C361.044 549.089 361.099 548.017 360.838 546.783Z" fill="#03091C"/>
<path d="M368.577 540.713L371.972 552.369L368.995 553.236L363.351 533.86L366.227 533.022L367.109 536.049L367.361 535.976C367.529 534.86 367.988 533.868 368.74 533.002C369.488 532.127 370.594 531.476 372.058 531.05C373.37 530.668 374.596 530.603 375.737 530.854C376.875 531.097 377.875 531.682 378.738 532.607C379.598 533.525 380.268 534.807 380.749 536.456L384.335 548.768L381.358 549.635L377.83 537.525C377.387 536.003 376.646 534.932 375.608 534.313C374.568 533.685 373.358 533.572 371.979 533.974C371.028 534.251 370.239 534.704 369.611 535.335C368.991 535.962 368.581 536.734 368.383 537.649C368.184 538.565 368.249 539.586 368.577 540.713Z" fill="#03091C"/>
<path d="M394.78 545.306C393.205 545.896 391.666 546.02 390.162 545.676C388.655 545.324 387.287 544.546 386.059 543.341C384.828 542.128 383.837 540.521 383.087 538.52C382.343 536.535 382.037 534.685 382.171 532.97C382.304 531.255 382.829 529.772 383.745 528.521C384.66 527.27 385.914 526.347 387.505 525.75C388.735 525.289 389.784 525.13 390.651 525.272C391.524 525.404 392.246 525.657 392.817 526.032C393.393 526.396 393.849 526.702 394.185 526.95L394.431 526.858L390.944 517.557L393.848 516.469L403.294 541.665L400.489 542.717L399.4 539.813L399.056 539.943C398.971 540.367 398.831 540.915 398.634 541.588C398.434 542.252 398.046 542.926 397.47 543.61C396.89 544.286 395.994 544.851 394.78 545.306ZM394.196 542.55C395.36 542.114 396.231 541.441 396.807 540.533C397.38 539.616 397.673 538.538 397.686 537.299C397.695 536.051 397.432 534.714 396.897 533.287C396.368 531.876 395.7 530.718 394.894 529.814C394.084 528.901 393.166 528.301 392.141 528.011C391.113 527.714 390.008 527.787 388.827 528.229C387.597 528.691 386.69 529.391 386.107 530.33C385.528 531.258 385.235 532.336 385.228 533.564C385.226 534.781 385.474 536.053 385.972 537.382C386.476 538.727 387.139 539.873 387.962 540.818C388.789 541.752 389.73 542.391 390.785 542.734C391.845 543.067 392.982 543.005 394.196 542.55Z" fill="#03091C"/>
<path d="M411.08 538.526C409.918 539.058 408.762 539.323 407.614 539.319C406.462 539.307 405.416 539.011 404.475 538.43C403.531 537.841 402.785 536.949 402.238 535.755C401.757 534.703 401.573 533.756 401.688 532.914C401.8 532.063 402.116 531.292 402.637 530.6C403.159 529.909 403.796 529.28 404.548 528.713C405.305 528.136 406.083 527.596 406.885 527.094C407.934 526.44 408.788 525.918 409.448 525.529C410.113 525.129 410.562 524.764 410.797 524.435C411.04 524.102 411.057 523.709 410.849 523.255L410.805 523.159C410.265 521.981 409.523 521.213 408.579 520.855C407.643 520.494 406.526 520.61 405.228 521.205C403.882 521.822 402.962 522.6 402.467 523.539C401.972 524.479 401.723 525.354 401.719 526.165L398.605 526.435C398.572 525.101 398.812 523.941 399.324 522.956C399.84 521.958 400.515 521.119 401.35 520.438C402.189 519.745 403.07 519.187 403.994 518.764C404.583 518.494 405.293 518.256 406.123 518.049C406.958 517.831 407.832 517.772 408.746 517.874C409.667 517.972 410.566 518.346 411.441 518.995C412.317 519.644 413.088 520.697 413.756 522.155L419.293 534.244L416.474 535.535L415.336 533.05L415.192 533.116C415.184 533.602 415.06 534.174 414.822 534.832C414.584 535.49 414.168 536.148 413.573 536.806C412.978 537.464 412.147 538.037 411.08 538.526ZM410.35 535.796C411.465 535.286 412.305 534.636 412.869 533.848C413.44 533.056 413.763 532.224 413.836 531.353C413.916 530.478 413.782 529.658 413.432 528.893L412.25 526.313C412.196 526.511 411.993 526.763 411.642 527.068C411.295 527.362 410.878 527.673 410.393 528.002C409.912 528.318 409.439 528.622 408.974 528.912C408.514 529.19 408.142 529.418 407.857 529.597C407.168 530.028 406.555 530.497 406.016 531.004C405.482 531.499 405.116 532.047 404.919 532.648C404.727 533.237 404.795 533.89 405.123 534.607C405.572 535.586 406.273 536.161 407.228 536.331C408.187 536.489 409.227 536.311 410.35 535.796Z" fill="#03091C"/>
<path d="M421.324 533.28L411.279 515.776L413.877 514.285L415.447 517.02L415.674 516.889C415.503 515.745 415.675 514.682 416.192 513.699C416.704 512.708 417.53 511.886 418.669 511.232C419.824 510.569 420.936 510.279 422.004 510.363C423.075 510.435 424.095 510.814 425.065 511.5L425.247 511.396C425.177 510.234 425.437 509.13 426.028 508.084C426.615 507.03 427.535 506.144 428.789 505.424C430.354 504.526 431.915 504.282 433.473 504.69C435.026 505.092 436.394 506.322 437.575 508.381L444.298 520.096L441.609 521.639L434.886 509.924C434.145 508.633 433.262 507.912 432.237 507.763C431.212 507.614 430.221 507.814 429.264 508.363C428.033 509.07 427.293 509.989 427.044 511.122C426.791 512.247 426.989 513.375 427.639 514.507L434.179 525.903L431.443 527.473L424.564 515.484C423.992 514.489 423.21 513.873 422.215 513.635C421.216 513.391 420.208 513.56 419.19 514.145C418.491 514.546 417.944 515.107 417.55 515.828C417.163 516.545 416.974 517.34 416.981 518.215C416.991 519.077 417.242 519.938 417.735 520.796L424.013 531.737L421.324 533.28Z" fill="#03091C"/>
<path d="M454.093 513.514C452.499 514.622 450.878 515.226 449.233 515.326C447.589 515.414 446.013 515.04 444.504 514.203C442.998 513.353 441.656 512.081 440.477 510.386C439.299 508.691 438.569 506.982 438.288 505.26C438.009 503.526 438.175 501.909 438.784 500.409C439.395 498.898 440.448 497.623 441.942 496.584C442.803 495.985 443.754 495.537 444.795 495.24C445.835 494.943 446.924 494.879 448.063 495.046C449.197 495.206 450.336 495.671 451.479 496.442C452.622 497.214 453.731 498.372 454.804 499.916L455.553 500.993L442.797 509.861L441.269 507.663L451.44 500.593C450.791 499.659 450.025 498.956 449.142 498.483C448.266 498.005 447.34 497.791 446.363 497.841C445.393 497.887 444.449 498.229 443.529 498.868C442.517 499.572 441.815 500.433 441.425 501.45C441.037 502.455 440.922 503.493 441.081 504.565C441.24 505.637 441.637 506.629 442.271 507.541L443.29 509.007C444.158 510.256 445.11 511.166 446.145 511.736C447.183 512.293 448.247 512.528 449.337 512.442C450.422 512.348 451.478 511.944 452.505 511.23C453.173 510.765 453.712 510.253 454.121 509.691C454.532 509.118 454.803 508.504 454.933 507.848C455.058 507.186 455.029 506.492 454.845 505.768L457.781 504.75C458.102 505.763 458.176 506.798 458.005 507.854C457.829 508.903 457.414 509.916 456.761 510.892C456.103 511.861 455.214 512.735 454.093 513.514Z" fill="#03091C"/>
<path d="M456.651 495.646L464.305 505.071L461.898 507.025L449.175 491.359L451.5 489.47L453.488 491.918L453.692 491.753C453.413 490.659 453.452 489.567 453.808 488.477C454.158 487.38 454.925 486.351 456.108 485.39C457.169 484.528 458.274 483.992 459.423 483.781C460.566 483.564 461.715 483.714 462.869 484.232C464.018 484.744 465.134 485.666 466.216 486.998L474.3 496.953L471.893 498.908L463.942 489.116C462.942 487.886 461.844 487.186 460.647 487.019C459.445 486.844 458.286 487.21 457.171 488.115C456.402 488.739 455.851 489.464 455.516 490.288C455.188 491.108 455.111 491.977 455.283 492.898C455.455 493.819 455.911 494.735 456.651 495.646Z" fill="#03091C"/>
<path d="M468.566 474.83L470.326 476.775L462.587 483.782L460.826 481.837L468.566 474.83ZM459.842 476.217L462.137 474.139L475.025 488.374C475.612 489.022 476.146 489.423 476.627 489.577C477.109 489.719 477.549 489.71 477.947 489.55C478.346 489.378 478.714 489.139 479.051 488.834C479.304 488.605 479.499 488.404 479.638 488.232C479.77 488.052 479.877 487.909 479.956 487.802L482.289 489.44C482.187 489.64 482.022 489.895 481.796 490.205C481.576 490.522 481.252 490.875 480.825 491.262C480.176 491.849 479.415 492.285 478.54 492.569C477.672 492.848 476.776 492.887 475.851 492.687C474.932 492.48 474.08 491.942 473.294 491.074L459.842 476.217Z" fill="#03091C"/>
<path d="M488.095 484.374C487.2 485.282 486.217 485.938 485.145 486.34C484.067 486.737 482.987 486.831 481.905 486.623C480.816 486.408 479.806 485.841 478.873 484.921C478.052 484.112 477.546 483.294 477.355 482.468C477.157 481.636 477.179 480.805 477.42 479.976C477.662 479.146 478.033 478.335 478.533 477.541C479.034 476.734 479.569 475.955 480.138 475.204C480.884 474.223 481.496 473.434 481.974 472.838C482.451 472.229 482.741 471.73 482.843 471.34C482.952 470.944 482.828 470.572 482.474 470.222L482.399 470.149C481.479 469.241 480.515 468.788 479.509 468.789C478.508 468.784 477.508 469.288 476.509 470.302C475.473 471.353 474.89 472.403 474.762 473.454C474.633 474.505 474.711 475.409 474.994 476.167L472.188 477.521C471.685 476.289 471.497 475.123 471.625 474.023C471.753 472.911 472.086 471.889 472.623 470.959C473.16 470.016 473.784 469.184 474.495 468.463C474.949 468.003 475.526 467.529 476.226 467.043C476.927 466.544 477.721 466.18 478.609 465.951C479.502 465.716 480.472 465.747 481.518 466.042C482.564 466.337 483.656 467.046 484.794 468.168L494.235 477.476L492.064 479.677L490.124 477.764L490.013 477.876C490.177 478.332 490.265 478.909 490.276 479.606C490.287 480.304 490.132 481.065 489.81 481.889C489.489 482.712 488.917 483.541 488.095 484.374ZM486.449 482.088C487.307 481.218 487.86 480.315 488.106 479.381C488.359 478.44 488.365 477.551 488.125 476.713C487.89 475.868 487.474 475.152 486.877 474.563L484.862 472.577C484.882 472.78 484.782 473.087 484.563 473.496C484.343 473.893 484.066 474.33 483.729 474.808C483.393 475.274 483.06 475.724 482.729 476.158C482.399 476.581 482.132 476.925 481.931 477.192C481.441 477.838 481.035 478.492 480.712 479.155C480.39 479.806 480.243 480.446 480.272 481.076C480.301 481.694 480.596 482.278 481.155 482.83C481.92 483.584 482.778 483.871 483.727 483.692C484.677 483.5 485.584 482.965 486.449 482.088Z" fill="#03091C"/>
<path d="M479.764 454.325L499.945 472.085L497.899 474.41L477.717 456.65L479.764 454.325Z" fill="#03091C"/>
<path d="M182.742 99.609L179.167 101.518L174.467 67.8359L177.987 65.9559L203.367 88.5934L199.792 90.5028L178.716 71.2922L178.496 71.4097L182.742 99.609ZM178.187 87.904L192.597 80.2078L194.212 83.2328L179.802 90.929L178.187 87.904Z" fill="#03091C"/>
<path d="M208.555 86.4929L197.035 56.7329L207.091 52.8404C209.426 51.9366 211.497 51.6193 213.306 51.8883C215.12 52.144 216.661 52.845 217.93 53.9916C219.198 55.1382 220.171 56.5882 220.85 58.3416C221.529 60.095 221.787 61.8274 221.625 63.5386C221.473 65.2461 220.821 66.813 219.669 68.2393C218.513 69.6558 216.777 70.8122 214.462 71.7085L207.254 74.4985L206.017 71.3016L213.108 68.5566C214.706 67.9379 215.883 67.1649 216.638 66.2377C217.393 65.3105 217.807 64.2927 217.879 63.1843C217.957 62.0624 217.765 60.9057 217.304 59.7141C216.843 58.5225 216.208 57.5432 215.398 56.776C214.599 56.005 213.606 55.5425 212.422 55.3885C211.233 55.2247 209.83 55.456 208.212 56.0822L201.877 58.5347L212.159 85.0979L208.555 86.4929Z" fill="#03091C"/>
<path d="M232.521 78.3005L224.521 47.2605L235.009 44.5574C237.434 43.9324 239.531 43.8337 241.301 44.2612C243.067 44.6785 244.51 45.5083 245.627 46.7504C246.745 47.9925 247.539 49.5279 248.011 51.3568C248.482 53.1856 248.526 54.9037 248.143 56.511C247.76 58.1183 246.899 59.5253 245.562 60.7321C244.222 61.9288 242.349 62.837 239.944 63.4568L231.457 65.6443L230.582 62.2493L238.948 60.093C240.605 59.6659 241.876 59.0797 242.762 58.3343C243.657 57.5863 244.218 56.7091 244.443 55.7027C244.676 54.6837 244.633 53.5527 244.312 52.3099C243.992 51.0671 243.48 50.0408 242.775 49.231C242.071 48.4212 241.143 47.8952 239.993 47.653C238.839 47.4007 237.424 47.4907 235.747 47.923L229.139 49.6262L236.279 77.3318L232.521 78.3005ZM243.537 60.5912L254.77 72.5662L250.405 73.6912L239.294 61.6849L243.537 60.5912Z" fill="#03091C"/>
<path d="M261.694 70.4088L257.534 38.7288L276.654 36.2181L277.101 39.6213L261.818 41.6281L263.223 52.3325L277.516 50.4556L277.963 53.8588L263.67 55.7356L265.084 66.5019L280.614 64.4625L281.061 67.8656L261.694 70.4088Z" fill="#03091C"/>
<path d="M314.24 35.7464L314.88 67.7464L311.13 67.8214L293.19 43.0451L292.877 43.0514L293.38 68.1764L289.505 68.2539L288.865 36.2539L292.615 36.1789L310.619 61.0164L310.931 61.0102L310.427 35.8227L314.24 35.7464Z" fill="#03091C"/>
<path d="M329.219 69.5808L319.418 68.379L323.312 36.6168L333.548 37.8718C336.629 38.2496 339.188 39.2087 341.224 40.7492C343.261 42.2793 344.719 44.2999 345.597 46.8108C346.476 49.3114 346.714 52.2056 346.311 55.4935C345.905 58.8021 344.967 61.5783 343.495 63.8221C342.025 66.0556 340.084 67.6752 337.673 68.681C335.263 69.6763 332.445 69.9763 329.219 69.5808ZM323.682 65.4386L329.39 66.1384C332.016 66.4604 334.254 66.2206 336.105 65.419C337.956 64.6175 339.42 63.333 340.497 61.5655C341.575 59.7981 342.272 57.622 342.589 55.0371C342.903 52.473 342.755 50.2142 342.144 48.2608C341.535 46.2971 340.459 44.7169 338.916 43.5202C337.375 42.3132 335.363 41.5576 332.882 41.2534L326.74 40.5004L323.682 65.4386Z" fill="#03091C"/>
<path d="M360.289 42.3783L353.281 73.6015L349.5 72.7529L356.508 41.5296L360.289 42.3783Z" fill="#03091C"/>
<path d="M394.949 52.4092L398.627 53.6291L391.957 73.7393C391.268 75.8155 390.164 77.507 388.644 78.8137C387.137 80.1138 385.343 80.94 383.262 81.2922C381.184 81.6346 378.954 81.4106 376.571 80.6203C374.188 79.8299 372.266 78.6766 370.804 77.1602C369.346 75.6339 368.397 73.8977 367.956 71.9516C367.528 69.9989 367.658 67.9844 368.347 65.9081L375.017 45.798L378.695 47.0179L372.123 66.8314C371.631 68.3145 371.52 69.7426 371.789 71.1158C372.061 72.4791 372.69 73.6921 373.676 74.7546C374.676 75.8105 376.021 76.6188 377.712 77.1796C379.403 77.7404 380.964 77.8962 382.397 77.647C383.833 77.3879 385.062 76.7915 386.085 75.8578C387.121 74.9175 387.885 73.7058 388.377 72.2227L394.949 52.4092Z" fill="#03091C"/>
<path d="M407.682 57.0742L411.807 59.1646L409.503 87.7744L409.837 87.9439L431.543 69.1644L435.669 71.2547L421.206 99.7998L417.973 98.1615L428.961 76.4739L428.682 76.3326L408.773 93.5005L405.651 91.9186L407.719 65.7114L407.441 65.5701L396.452 87.2577L393.219 85.6193L407.682 57.0742Z" fill="#03091C"/>
<g filter="url(#filter1_i_6_3)">
<path d="M302.5 512.5C418.48 512.5 512.5 418.48 512.5 302.5C512.5 186.52 418.48 92.5 302.5 92.5C186.52 92.5 92.5 186.52 92.5 302.5C92.5 418.48 186.52 512.5 302.5 512.5Z" fill="#105B8E"/>
</g>
<path d="M302.5 105.5C411.3 105.5 499.5 193.7 499.5 302.5C499.5 411.3 411.3 499.5 302.5 499.5C193.7 499.5 105.5 411.3 105.5 302.5C105.5 193.7 193.7 105.5 302.5 105.5ZM302.5 79.5C247.371 79.5836 194.238 100.141 153.408 137.183C112.578 174.226 86.9625 225.114 81.5299 279.975C76.0973 334.836 91.2351 389.759 124.007 434.09C156.779 478.421 204.848 509 258.89 519.894C312.932 530.788 369.094 521.222 416.482 493.05C463.869 464.878 499.104 420.11 515.351 367.429C531.598 314.748 527.698 257.91 504.409 207.942C481.12 157.973 440.101 118.436 389.31 97C361.846 85.3845 332.319 79.4323 302.5 79.5Z" fill="#03091C"/>
<path d="M302.51 421.16C300.457 418.34 298.35 415.58 296.19 412.88C293.93 410.04 291.597 407.263 289.19 404.55C283.754 398.396 277.975 392.553 271.88 387.05C269.24 384.65 266.55 382.34 263.8 380.05C258.6 375.79 253.19 371.773 247.57 368C240.921 363.503 234.031 359.374 226.93 355.63C225.71 354.99 224.49 354.36 223.25 353.74C215.368 349.772 207.249 346.292 198.94 343.32C183.224 337.686 166.909 333.888 150.32 332C147.06 331.627 143.787 331.333 140.5 331.12C136.22 330.82 131.91 330.653 127.57 330.62H126V306.86C128 306.86 130 306.86 132 306.98C138.173 307.167 144.263 307.65 150.27 308.43C158.467 309.469 166.588 311.043 174.58 313.14C190.222 317.217 205.283 323.265 219.4 331.14C220.67 331.84 221.94 332.56 223.2 333.3C231.72 338.291 239.85 343.921 247.52 350.14C249.71 351.92 251.86 353.75 253.97 355.61C260.303 361.221 266.269 367.233 271.83 373.61C273.68 375.72 275.48 377.89 277.23 380.08C283.43 387.802 289.036 395.982 294 404.55C294.77 405.87 295.51 407.21 296.23 408.55C298.463 412.663 300.557 416.867 302.51 421.16Z" fill="white" stroke="white" stroke-width="0.5" stroke-miterlimit="10"/>
<path d="M302.22 446C300.367 443.44 298.457 440.937 296.49 438.49C294.437 435.917 292.323 433.4 290.15 430.94C285.217 425.361 279.976 420.062 274.45 415.07C272.063 412.897 269.62 410.79 267.12 408.75C262.387 404.87 257.483 401.203 252.41 397.75C246.386 393.666 240.14 389.92 233.7 386.53C232.59 385.94 231.48 385.37 230.36 384.81C216.354 377.761 201.551 372.422 186.27 368.91C178.998 367.233 171.636 365.974 164.22 365.14C161.27 364.8 158.31 364.53 155.32 364.33C151.44 364.07 147.533 363.92 143.6 363.88H142.17V342.36C144.01 342.36 145.83 342.36 147.66 342.47C153.25 342.64 158.78 343.09 164.22 343.78C186.237 346.583 207.516 353.568 226.91 364.36C228.06 365 229.22 365.66 230.36 366.36C238.067 370.893 245.421 376.001 252.36 381.64C254.36 383.25 256.29 384.91 258.2 386.64C263.951 391.724 269.362 397.179 274.4 402.97C276.08 404.88 277.71 406.84 279.29 408.83C284.888 415.833 289.946 423.251 294.42 431.02C295.12 432.22 295.79 433.43 296.42 434.64C298.52 438.327 300.453 442.113 302.22 446Z" fill="white" stroke="white" stroke-width="0.5" stroke-miterlimit="10"/>
<path d="M303 421.16C305.04 418.34 307.147 415.58 309.32 412.88C311.58 410.04 313.913 407.263 316.32 404.55C321.761 398.4 327.54 392.558 333.63 387.05C336.27 384.65 338.97 382.34 341.72 380.05C346.933 375.77 352.34 371.733 357.94 367.94C364.591 363.445 371.481 359.316 378.58 355.57C379.8 354.93 381.02 354.3 382.26 353.68C405.1 342.205 429.791 334.865 455.19 332C458.44 331.63 461.72 331.34 465 331.12C469.28 330.82 473.593 330.653 477.94 330.62H479.51V306.86C477.51 306.86 475.51 306.86 473.46 306.98C467.293 307.167 461.203 307.65 455.19 308.43C446.993 309.468 438.872 311.042 430.88 313.14C422.607 315.306 414.486 318.016 406.57 321.25C399.544 324.136 392.696 327.435 386.06 331.13C384.78 331.797 383.51 332.517 382.25 333.29C373.73 338.281 365.6 343.911 357.93 350.13C355.75 351.91 353.6 353.74 351.49 355.6C345.153 361.21 339.184 367.223 333.62 373.6C331.78 375.71 329.98 377.88 328.23 380.07C322.058 387.792 316.482 395.972 311.55 404.54C310.78 405.86 310.04 407.2 309.32 408.54C307.06 412.66 304.953 416.867 303 421.16Z" fill="white" stroke="white" stroke-width="0.5" stroke-miterlimit="10"/>
<path d="M303.28 446C305.14 443.44 307.05 440.937 309.01 438.49C311.063 435.917 313.18 433.4 315.36 430.94C320.289 425.361 325.527 420.063 331.05 415.07C333.437 412.897 335.88 410.79 338.38 408.75C343.113 404.87 348.02 401.203 353.1 397.75C359.122 393.664 365.369 389.918 371.81 386.53C372.92 385.94 374.02 385.37 375.15 384.81C389.156 377.761 403.959 372.422 419.24 368.91C426.495 367.235 433.841 365.976 441.24 365.14C444.193 364.8 447.16 364.53 450.14 364.33C454.02 364.07 457.93 363.92 461.87 363.88H463.29V342.36C461.45 342.36 459.63 342.36 457.81 342.47C452.22 342.64 446.69 343.09 441.24 343.78C419.226 346.585 397.952 353.57 378.56 364.36C377.4 365 376.25 365.66 375.11 366.36C367.401 370.89 360.047 375.998 353.11 381.64C351.11 383.25 349.17 384.91 347.26 386.64C341.512 391.727 336.1 397.181 331.06 402.97C329.39 404.88 327.76 406.84 326.17 408.83C320.565 415.809 315.494 423.199 311 430.94C310.31 432.14 309.64 433.35 309 434.56C307 438.3 305.093 442.113 303.28 446Z" fill="white" stroke="white" stroke-width="0.5" stroke-miterlimit="10"/>
<path d="M267.08 206.13L300.6 214.12" stroke="white" stroke-width="16" stroke-miterlimit="10"/>
<path d="M300.6 214.12V254.02" stroke="white" stroke-width="16" stroke-miterlimit="10"/>
<path d="M300.6 254.02L302.19 329.04" stroke="white" stroke-width="16" stroke-miterlimit="10"/>
<path d="M332.52 262L300.6 255.62" stroke="white" stroke-width="16" stroke-miterlimit="10"/>
<path d="M348.48 301.9L327.73 337.02" stroke="white" stroke-width="16" stroke-miterlimit="10"/>
<path d="M302.19 329.04L327.73 337.02" stroke="white" stroke-width="16" stroke-miterlimit="10"/>
<path d="M278.25 337.02L302.19 329.04" stroke="white" stroke-width="16" stroke-miterlimit="10"/>
<path d="M252.71 301.9L278.25 337.02" stroke="white" stroke-width="16" stroke-miterlimit="10"/>
<path d="M348.48 301.9L374.02 274.77" stroke="white" stroke-width="16" stroke-miterlimit="10"/>
<path d="M366.04 247.63L374.02 274.77" stroke="white" stroke-width="16" stroke-miterlimit="10"/>
<path d="M374.02 222.1L346.88 226.88" stroke="white" stroke-width="16" stroke-miterlimit="10"/>
<path d="M366.04 247.63L374.02 222.1" stroke="white" stroke-width="16" stroke-miterlimit="10"/>
<path d="M346.88 194.96L374.02 222.1" stroke="white" stroke-width="16" stroke-miterlimit="10"/>
<path d="M335.71 167.83L346.88 194.96" stroke="white" stroke-width="16" stroke-miterlimit="10"/>
<path d="M300.6 167.83H335.71" stroke="white" stroke-width="16" stroke-miterlimit="10"/>
<path d="M300.6 214.12V167.83" stroke="white" stroke-width="16" stroke-miterlimit="10"/>
<path d="M260.69 167.83H300.6" stroke="white" stroke-width="16" stroke-miterlimit="10"/>
<path d="M251.12 194.96L260.69 167.83" stroke="white" stroke-width="16" stroke-miterlimit="10"/>
<path d="M223.98 223.69L251.12 194.96" stroke="white" stroke-width="16" stroke-miterlimit="10"/>
<path d="M231.96 247.63L223.98 223.69" stroke="white" stroke-width="16" stroke-miterlimit="10"/>
<path d="M252.71 301.9V269.98" stroke="white" stroke-width="16" stroke-miterlimit="10"/>
<path d="M231.96 247.63L223.98 273.17" stroke="white" stroke-width="16" stroke-miterlimit="10"/>
<path d="M252.71 301.9L223.98 273.17" stroke="white" stroke-width="16" stroke-miterlimit="10"/>
<path d="M302.19 337.02C306.597 337.02 310.17 333.447 310.17 329.04C310.17 324.633 306.597 321.06 302.19 321.06C297.783 321.06 294.21 324.633 294.21 329.04C294.21 333.447 297.783 337.02 302.19 337.02Z" fill="white" stroke="white" stroke-miterlimit="10"/>
<path d="M327.73 345C332.137 345 335.71 341.427 335.71 337.02C335.71 332.613 332.137 329.04 327.73 329.04C323.323 329.04 319.75 332.613 319.75 337.02C319.75 341.427 323.323 345 327.73 345Z" fill="white" stroke="white" stroke-miterlimit="10"/>
<path d="M348.48 309.88C352.887 309.88 356.46 306.307 356.46 301.9C356.46 297.493 352.887 293.92 348.48 293.92C344.073 293.92 340.5 297.493 340.5 301.9C340.5 306.307 344.073 309.88 348.48 309.88Z" fill="white" stroke="white" stroke-miterlimit="10"/>
<path d="M278.25 345C282.657 345 286.23 341.427 286.23 337.02C286.23 332.613 282.657 329.04 278.25 329.04C273.843 329.04 270.27 332.613 270.27 337.02C270.27 341.427 273.843 345 278.25 345Z" fill="white" stroke="white" stroke-miterlimit="10"/>
<path d="M252.71 309.88C257.117 309.88 260.69 306.307 260.69 301.9C260.69 297.493 257.117 293.92 252.71 293.92C248.303 293.92 244.73 297.493 244.73 301.9C244.73 306.307 248.303 309.88 252.71 309.88Z" fill="white" stroke="white" stroke-miterlimit="10"/>
<path d="M252.71 277.96C257.117 277.96 260.69 274.387 260.69 269.98C260.69 265.573 257.117 262 252.71 262C248.303 262 244.73 265.573 244.73 269.98C244.73 274.387 248.303 277.96 252.71 277.96Z" fill="white" stroke="white" stroke-miterlimit="10"/>
<path d="M223.98 281.15C228.387 281.15 231.96 277.577 231.96 273.17C231.96 268.763 228.387 265.19 223.98 265.19C219.573 265.19 216 268.763 216 273.17C216 277.577 219.573 281.15 223.98 281.15Z" fill="white" stroke="white" stroke-miterlimit="10"/>
<path d="M231.96 255.61C236.367 255.61 239.94 252.037 239.94 247.63C239.94 243.223 236.367 239.65 231.96 239.65C227.553 239.65 223.98 243.223 223.98 247.63C223.98 252.037 227.553 255.61 231.96 255.61Z" fill="white" stroke="white" stroke-miterlimit="10"/>
<path d="M223.98 231.67C228.387 231.67 231.96 228.097 231.96 223.69C231.96 219.283 228.387 215.71 223.98 215.71C219.573 215.71 216 219.283 216 223.69C216 228.097 219.573 231.67 223.98 231.67Z" fill="white" stroke="white" stroke-miterlimit="10"/>
<path d="M300.6 262C305.007 262 308.58 258.427 308.58 254.02C308.58 249.613 305.007 246.04 300.6 246.04C296.193 246.04 292.62 249.613 292.62 254.02C292.62 258.427 296.193 262 300.6 262Z" fill="white" stroke="white" stroke-miterlimit="10"/>
<path d="M332.52 269.98C336.927 269.98 340.5 266.407 340.5 262C340.5 257.593 336.927 254.02 332.52 254.02C328.113 254.02 324.54 257.593 324.54 262C324.54 266.407 328.113 269.98 332.52 269.98Z" fill="white" stroke="white" stroke-miterlimit="10"/>
<path d="M300.6 222.1C305.007 222.1 308.58 218.527 308.58 214.12C308.58 209.713 305.007 206.14 300.6 206.14C296.193 206.14 292.62 209.713 292.62 214.12C292.62 218.527 296.193 222.1 300.6 222.1Z" fill="white" stroke="white" stroke-miterlimit="10"/>
<path d="M267.08 214.11C271.487 214.11 275.06 210.537 275.06 206.13C275.06 201.723 271.487 198.15 267.08 198.15C262.673 198.15 259.1 201.723 259.1 206.13C259.1 210.537 262.673 214.11 267.08 214.11Z" fill="white" stroke="white" stroke-miterlimit="10"/>
<path d="M251.12 202.94C255.527 202.94 259.1 199.367 259.1 194.96C259.1 190.553 255.527 186.98 251.12 186.98C246.713 186.98 243.14 190.553 243.14 194.96C243.14 199.367 246.713 202.94 251.12 202.94Z" fill="white" stroke="white" stroke-miterlimit="10"/>
<path d="M260.69 175.81C265.097 175.81 268.67 172.237 268.67 167.83C268.67 163.423 265.097 159.85 260.69 159.85C256.283 159.85 252.71 163.423 252.71 167.83C252.71 172.237 256.283 175.81 260.69 175.81Z" fill="white" stroke="white" stroke-miterlimit="10"/>
<path d="M300.6 175.81C305.007 175.81 308.58 172.237 308.58 167.83C308.58 163.423 305.007 159.85 300.6 159.85C296.193 159.85 292.62 163.423 292.62 167.83C292.62 172.237 296.193 175.81 300.6 175.81Z" fill="white" stroke="white" stroke-miterlimit="10"/>
<path d="M335.71 175.81C340.117 175.81 343.69 172.237 343.69 167.83C343.69 163.423 340.117 159.85 335.71 159.85C331.303 159.85 327.73 163.423 327.73 167.83C327.73 172.237 331.303 175.81 335.71 175.81Z" fill="white" stroke="white" stroke-miterlimit="10"/>
<path d="M346.88 202.94C351.287 202.94 354.86 199.367 354.86 194.96C354.86 190.553 351.287 186.98 346.88 186.98C342.473 186.98 338.9 190.553 338.9 194.96C338.9 199.367 342.473 202.94 346.88 202.94Z" fill="white" stroke="white" stroke-miterlimit="10"/>
<path d="M346.88 234.86C351.287 234.86 354.86 231.287 354.86 226.88C354.86 222.473 351.287 218.9 346.88 218.9C342.473 218.9 338.9 222.473 338.9 226.88C338.9 231.287 342.473 234.86 346.88 234.86Z" fill="white" stroke="white" stroke-miterlimit="10"/>
<path d="M374.02 230.08C378.427 230.08 382 226.507 382 222.1C382 217.693 378.427 214.12 374.02 214.12C369.613 214.12 366.04 217.693 366.04 222.1C366.04 226.507 369.613 230.08 374.02 230.08Z" fill="white" stroke="white" stroke-miterlimit="10"/>
<path d="M366.04 255.61C370.447 255.61 374.02 252.037 374.02 247.63C374.02 243.223 370.447 239.65 366.04 239.65C361.633 239.65 358.06 243.223 358.06 247.63C358.06 252.037 361.633 255.61 366.04 255.61Z" fill="white" stroke="white" stroke-miterlimit="10"/>
<path d="M374.02 282.75C378.427 282.75 382 279.177 382 274.77C382 270.363 378.427 266.79 374.02 266.79C369.613 266.79 366.04 270.363 366.04 274.77C366.04 279.177 369.613 282.75 374.02 282.75Z" fill="white" stroke="white" stroke-miterlimit="10"/>
<path d="M60.8 295.67L74.56 297.64L64.62 307.37L67 321.07L54.68 314.62L42.39 321.12L44.71 307.41L34.73 297.72L48.49 295.7L54.62 283.21L60.8 295.67Z" fill="#03091C"/>
<path d="M556.58 291.79L570.34 293.76L560.4 303.49L562.78 317.19L550.46 310.74L538.17 317.24L540.49 303.53L530.51 293.84L544.27 291.81L550.4 279.33L556.58 291.79Z" fill="#03091C"/>
</g>
<path d="M674.138 405V386.4H695.738L771.938 199.2H804.938L881.138 386.4H902.738V405H803.738V386.4H838.538L773.438 222H785.738L719.138 386.4H753.938V405H674.138ZM730.238 341.7V322.5H828.938V341.7H730.238ZM1018.64 407.7C1004.44 407.7 993.041 404.5 984.441 398.1C975.841 391.5 969.541 382.3 965.541 370.5C961.741 358.7 959.841 344.9 959.841 329.1L957.741 328.5C957.741 312.9 959.841 299.2 964.041 287.4C968.441 275.4 975.041 266.1 983.841 259.5C992.841 252.9 1004.34 249.6 1018.34 249.6C1031.54 249.6 1043.04 252.7 1052.84 258.9C1062.64 264.9 1070.34 273.8 1075.94 285.6C1081.54 297.2 1084.34 311.6 1084.34 328.8C1084.34 345.8 1081.54 360.2 1075.94 372C1070.54 383.8 1062.84 392.7 1052.84 398.7C1043.04 404.7 1031.64 407.7 1018.64 407.7ZM1004.84 386.4C1012.84 386.4 1019.64 384.2 1025.24 379.8C1031.04 375.4 1035.54 368.9 1038.74 360.3C1041.94 351.7 1043.54 341.2 1043.54 328.8C1043.54 316.4 1041.94 305.9 1038.74 297.3C1035.54 288.5 1031.04 281.9 1025.24 277.5C1019.64 273.1 1012.84 270.9 1004.84 270.9C996.841 270.9 989.941 273.1 984.141 277.5C978.341 281.9 973.841 288.5 970.641 297.3C967.441 305.9 965.841 316.4 965.841 328.8C965.841 341.2 967.441 351.7 970.641 360.3C973.841 368.9 978.341 375.4 984.141 379.8C989.941 384.2 996.841 386.4 1004.84 386.4ZM904.641 462.3V444H930.141V270.9H906.441V252.6H965.241V305.1L961.941 327.6L967.941 358.2V444H1011.74V462.3H904.641ZM1102.15 405V386.7H1128.55V270.9H1104.85V252.6H1162.45V305.1L1166.05 304.5V386.7H1209.85V405H1102.15ZM1155.85 312.3C1156.05 296.9 1158.45 284.6 1163.05 275.4C1167.85 266 1174.15 259.2 1181.95 255C1189.75 250.6 1198.55 248.4 1208.35 248.4C1218.75 248.4 1227.15 251.1 1233.55 256.5C1239.95 261.9 1243.15 269.2 1243.15 278.4C1243.15 285.2 1241.15 290.8 1237.15 295.2C1233.35 299.6 1227.95 301.8 1220.95 301.8C1214.95 301.8 1210.05 300.2 1206.25 297C1202.65 293.6 1200.85 289.4 1200.85 284.4C1200.85 278.2 1202.95 273.6 1207.15 270.6C1211.35 267.4 1217.85 266.1 1226.65 266.7L1225.15 278.1C1224.75 273.3 1222.75 269.6 1219.15 267C1215.55 264.4 1210.55 263.1 1204.15 263.1C1197.35 263.1 1191.05 264.9 1185.25 268.5C1179.45 271.9 1174.75 277.3 1171.15 284.7C1167.75 291.9 1166.05 301.1 1166.05 312.3H1155.85ZM1334.04 408C1319.44 408 1306.44 404.9 1295.04 398.7C1283.64 392.3 1274.64 383.2 1268.04 371.4C1261.64 359.6 1258.44 345.4 1258.44 328.8C1258.44 312 1261.64 297.7 1268.04 285.9C1274.64 274.1 1283.64 265.1 1295.04 258.9C1306.44 252.7 1319.44 249.6 1334.04 249.6L1334.94 267C1327.34 267 1320.64 269 1314.84 273C1309.04 277 1304.54 283.3 1301.34 291.9C1298.14 300.3 1296.54 311.5 1296.54 325.5C1296.54 342.9 1300.74 356.6 1309.14 366.6C1317.54 376.6 1329.24 381.6 1344.24 381.6C1353.64 381.6 1361.34 379.7 1367.34 375.9C1373.54 372.1 1378.24 367.2 1381.44 361.2C1384.84 355.2 1386.94 349.1 1387.74 342.9H1404.84C1404.64 351.1 1403.04 359.1 1400.04 366.9C1397.04 374.7 1392.64 381.7 1386.84 387.9C1381.04 394.1 1373.74 399 1364.94 402.6C1356.14 406.2 1345.84 408 1334.04 408ZM1277.94 326.1V308.7H1367.94L1405.14 320.4V326.1H1277.94ZM1367.94 308.7C1367.74 300.5 1366.34 293.3 1363.74 287.1C1361.34 280.7 1357.74 275.8 1352.94 272.4C1348.14 268.8 1342.14 267 1334.94 267L1334.04 249.6C1349.64 249.6 1362.64 252.6 1373.04 258.6C1383.64 264.6 1391.64 272.9 1397.04 283.5C1402.44 294.1 1405.14 306.4 1405.14 320.4L1367.94 308.7ZM1521.07 405V386.7H1542.67V299.4C1542.67 290.8 1540.57 284.5 1536.37 280.5C1532.17 276.3 1526.27 274.2 1518.67 274.2C1513.07 274.2 1507.77 275.4 1502.77 277.8C1497.97 280.2 1494.07 284.2 1491.07 289.8C1488.07 295.2 1486.57 302.4 1486.57 311.4L1480.57 311.7C1480.57 298.3 1482.37 287 1485.97 277.8C1489.57 268.6 1495.17 261.7 1502.77 257.1C1510.57 252.3 1520.57 249.9 1532.77 249.9C1546.57 249.9 1557.97 253.8 1566.97 261.6C1575.97 269.2 1580.47 281.4 1580.47 298.2V386.7H1600.57V405H1521.07ZM1422.37 405V386.7H1448.77V270.9H1425.07V252.6H1482.07V299.7L1486.57 298.8V386.7H1508.47V405H1422.37ZM1683.95 408C1670.95 408 1659.55 405 1649.75 399C1639.95 392.8 1632.25 383.8 1626.65 372C1621.05 360.2 1618.25 345.8 1618.25 328.8C1618.25 311.6 1621.05 297.2 1626.65 285.6C1632.25 273.8 1639.95 264.9 1649.75 258.9C1659.55 252.7 1670.95 249.6 1683.95 249.6C1697.95 249.6 1709.25 252.9 1717.85 259.5C1726.45 265.9 1732.65 275.1 1736.45 287.1C1740.45 298.9 1742.45 312.7 1742.45 328.5L1744.55 329.1C1744.75 344.5 1742.65 358.2 1738.25 370.2C1734.05 382 1727.45 391.3 1718.45 398.1C1709.45 404.7 1697.95 408 1683.95 408ZM1697.45 386.7C1705.45 386.7 1712.35 384.5 1718.15 380.1C1723.95 375.5 1728.45 368.9 1731.65 360.3C1735.05 351.7 1736.75 341.2 1736.75 328.8C1736.75 316.4 1735.05 305.9 1731.65 297.3C1728.45 288.5 1723.95 281.9 1718.15 277.5C1712.35 273.1 1705.45 270.9 1697.45 270.9C1689.45 270.9 1682.55 273.1 1676.75 277.5C1670.95 281.9 1666.45 288.5 1663.25 297.3C1660.25 305.9 1658.75 316.4 1658.75 328.8C1658.75 341.2 1660.25 351.7 1663.25 360.3C1666.45 368.9 1670.95 375.5 1676.75 380.1C1682.55 384.5 1689.45 386.7 1697.45 386.7ZM1737.35 405V362.7L1740.65 327.6L1734.35 295.5V218.7H1710.65V200.4H1772.45V386.7H1795.55V405H1737.35ZM1805.86 405V386.7H1832.26V270.9H1808.56V252.6H1869.76V386.7H1892.86V405H1805.86ZM1849.36 234.6C1842.76 234.6 1837.36 232.6 1833.16 228.6C1829.16 224.6 1827.16 219.2 1827.16 212.4C1827.16 205.6 1829.16 200.2 1833.16 196.2C1837.36 192.2 1842.76 190.2 1849.36 190.2C1855.96 190.2 1861.26 192.2 1865.26 196.2C1869.26 200.2 1871.26 205.6 1871.26 212.4C1871.26 219.2 1869.26 224.6 1865.26 228.6C1861.26 232.6 1855.96 234.6 1849.36 234.6ZM1971.55 407.4C1962.15 407.4 1953.75 405.7 1946.35 402.3C1939.15 398.9 1933.45 393.6 1929.25 386.4C1925.05 379 1922.95 369.6 1922.95 358.2V270.9H1902.85V252.6H1960.45V358.2C1960.45 366.6 1962.65 372.9 1967.05 377.1C1971.65 381.3 1977.75 383.4 1985.35 383.4C1990.95 383.4 1996.25 382.2 2001.25 379.8C2006.25 377.2 2010.25 373.2 2013.25 367.8C2016.25 362.2 2017.75 354.9 2017.75 345.9L2024.65 345.6C2024.65 359.2 2022.75 370.6 2018.95 379.8C2015.35 388.8 2009.55 395.7 2001.55 400.5C1993.75 405.1 1983.75 407.4 1971.55 407.4ZM2022.55 405V355.8L2017.75 356.7V270.9H1994.05V252.6H2055.85V386.7H2078.95V405H2022.55ZM2089.16 405V386.7H2115.56V270.9H2091.86V252.6H2147.66V301.5L2152.16 300.9V386.7H2170.46V405H2089.16ZM2181.26 405V386.7H2199.56V296.1C2199.56 288.7 2197.66 283.2 2193.86 279.6C2190.26 276 2185.16 274.2 2178.56 274.2C2173.96 274.2 2169.66 275.3 2165.66 277.5C2161.66 279.5 2158.36 282.8 2155.76 287.4C2153.36 292 2152.16 298.2 2152.16 306L2146.16 306.3C2146.16 294.3 2147.56 284.1 2150.36 275.7C2153.36 267.3 2158.26 260.9 2165.06 256.5C2171.86 252.1 2180.96 249.9 2192.36 249.9C2205.36 249.9 2215.96 253.5 2224.16 260.7C2232.36 267.9 2236.46 279.4 2236.46 295.2V386.7H2254.76V405H2181.26ZM2265.86 405V386.7H2283.86V296.1C2283.86 288.7 2281.96 283.2 2278.16 279.6C2274.56 276 2269.46 274.2 2262.86 274.2C2258.26 274.2 2253.96 275.3 2249.96 277.5C2245.96 279.5 2242.66 282.8 2240.06 287.4C2237.66 292 2236.46 298.2 2236.46 306L2232.56 306.3C2232.56 294.3 2233.96 284.1 2236.76 275.7C2239.76 267.3 2244.56 260.9 2251.16 256.5C2257.96 252.1 2266.86 249.9 2277.86 249.9C2290.86 249.9 2301.26 253.6 2309.06 261C2316.86 268.2 2320.76 279.9 2320.76 296.1V386.7H2340.86V405H2265.86Z" fill="black"/>
<defs>
<filter id="filter0_i_6_3" x="0" y="0" width="605" height="605" filterUnits="userSpaceOnUse" color-interpolation-filters="sRGB">
<feFlood flood-opacity="0" result="BackgroundImageFix"/>
<feBlend mode="normal" in="SourceGraphic" in2="BackgroundImageFix" result="shape"/>
<feColorMatrix in="SourceAlpha" type="matrix" values="0 0 0 0 0 0 0 0 0 0 0 0 0 0 0 0 0 0 127 0" result="hardAlpha"/>
<feOffset/>
<feGaussianBlur stdDeviation="37.5"/>
<feComposite in2="hardAlpha" operator="arithmetic" k2="-1" k3="1"/>
<feColorMatrix type="matrix" values="0 0 0 0 0 0 0 0 0 0 0 0 0 0 0 0 0 0 1 0"/>
<feBlend mode="normal" in2="shape" result="effect1_innerShadow_6_3"/>
</filter>
<filter id="filter1_i_6_3" x="92.5" y="92.5" width="420" height="420" filterUnits="userSpaceOnUse" color-interpolation-filters="sRGB">
<feFlood flood-opacity="0" result="BackgroundImageFix"/>
<feBlend mode="normal" in="SourceGraphic" in2="BackgroundImageFix" result="shape"/>
<feColorMatrix in="SourceAlpha" type="matrix" values="0 0 0 0 0 0 0 0 0 0 0 0 0 0 0 0 0 0 127 0" result="hardAlpha"/>
<feOffset/>
<feGaussianBlur stdDeviation="25"/>
<feComposite in2="hardAlpha" operator="arithmetic" k2="-1" k3="1"/>
<feColorMatrix type="matrix" values="0 0 0 0 0 0 0 0 0 0 0 0 0 0 0 0 0 0 1 0"/>
<feBlend mode="normal" in2="shape" result="effect1_innerShadow_6_3"/>
</filter>
</defs>
</svg>
